<?xml version="1.0" standalone="no"?>
<!DOCTYPE svg PUBLIC "-//W3C//DTD SVG 1.1//EN" "http://www.w3.org/Graphics/SVG/1.1/DTD/svg11.dtd" >
<svg xmlns="http://www.w3.org/2000/svg" xmlns:xlink="http://www.w3.org/1999/xlink" version="1.1">
<metadata>
Created by FontForge 20150318 at Mon Oct 26 06:35:07 2015
 By uniteet7
Generated by Fontographer 4.0
</metadata>
<defs>
<font id="CatharsisBedouin" horiz-adv-x="250" >
  <font-face 
    font-family="CatharsisBedouin"
    font-weight="400"
    font-stretch="normal"
    units-per-em="900"
    panose-1="0 0 4 0 0 0 0 0 0 0"
    ascent="600"
    descent="-300"
    x-height="262"
    cap-height="397"
    bbox="-371 -276 564 600"
    underline-thickness="20"
    underline-position="-123"
    unicode-range="U+0020-F002"
  />
<missing-glyph horiz-adv-x="450" 
d="M56 0v600h338v-600h-338zM113 56h225v488h-225v-488z" />
    <glyph glyph-name=".notdef" horiz-adv-x="450" 
d="M56 0v600h338v-600h-338zM113 56h225v488h-225v-488z" />
    <glyph glyph-name=".null" horiz-adv-x="0" 
 />
    <glyph glyph-name="nonmarkingreturn" horiz-adv-x="175" 
 />
    <glyph glyph-name="space" unicode=" " horiz-adv-x="175" 
 />
    <glyph glyph-name="exclam" unicode="!" horiz-adv-x="185" 
d="M91 360q-12 0 -12 -8t12 -24q-43 21 -43 73q0 40 15 46q9 4 34 5q28 1 44 -5q23 -7 23 -25q0 -21 -42 -123q-8 -18 -7 -104q1 -78 5 -93q9 -41 9 -59q0 -30 -28 -38q-20 -5 -102 -5v90q33 0 59 14q35 17 35 47q0 24 3 79q2 45 1 69q0 12 3 29t3 20q0 12 -12 12zM158 -95
q-28 43 -65 64q-27 -38 -63 -63q36 -25 63 -68q42 31 65 67z" />
    <glyph glyph-name="quotedbl" unicode="&#x22;" horiz-adv-x="282" 
d="M104 0q-39 0 -60 35q-19 29 -19 69q0 73 136 112q-31 -14 -55 -39q-28 -29 -28 -58t42 -29q91 0 91 49q0 39 -39 76t-85 37q-35 0 -46 -28q5 43 24 75q24 43 60 43q51 0 86 -55q30 -47 30 -97q0 -56 -15 -104q-17 -53 -41.5 -69.5t-80.5 -16.5zM180 46q15 33 46 97
q8 -52 57 -52v-91q-45 0 -65 6q-32 10 -38 40zM15 424q23 35 65 67q27 -44 63 -69q-36 -24 -63 -63q-37 22 -65 65zM125 423q22 36 65 67q26 -43 63 -69q-36 -24 -63 -63q-38 22 -65 65z" />
    <glyph glyph-name="numbersign" unicode="#" horiz-adv-x="298" 
d="M217 236q35 -10 35 -119q0 -29 -3 -91q-3 -56 -2 -75q1 -42 1 -51q0 -149 -99 -168q-27 -5 -117 -5q-108 0 -119 9q-30 25 -30 52q0 46 81 122q-22 -33 -22 -56q0 -26 27 -32q32 -7 88 -7q67 0 92 7q39 11 52 24q22 22 23 72q3 216 -3 227q-7 15 -47 15q-62 0 -62 -36
q0 -6 2 -12q-13 9 -25 34.5t-12 48.5q0 18 9 28q19 21 67 21q33 0 64 -8zM224 76q7 15 8 48.5t9 49.5q0 -31 17 -58.5t41 -27.5v-91q-60 0 -75 79z" />
    <glyph glyph-name="dollar" unicode="$" horiz-adv-x="347" 
d="M292 -82q0 34 -34 98q-42 78 -47 97q-11 34 -11 67v0q0 73 42 101q44 30 98 -15q-2 -26 -26 -91q-8 29 -34 29v0q-18 0 -32 -14.5t-9 -32.5q4 -17 43 -99q34 -70 35 -107q1 -88 -8 -124q-20 -81 -93 -95q-27 -5 -117 -5q-107 0 -119 9q-30 25 -30 52q0 46 82 122
q-22 -33 -22 -56q0 -26 27 -32q32 -7 88 -7q67 0 91 7q39 11 52 24q22 22 24 72zM221 -55q-28 43 -65 65q-27 -39 -63 -63q36 -25 63 -69q42 32 65 67zM181 72q-27 43 -65 65q-27 -39 -63 -63q37 -26 63 -69q43 31 65 67z" />
    <glyph glyph-name="percent" unicode="%" horiz-adv-x="379" 
d="M345 -49q11 -20 11 -56q0 -55 -25 -99q-31 -53 -87 -64q-27 -5 -117 -5q-107 0 -119 9q-30 25 -30 52q0 46 81 122q-21 -33 -21 -56q0 -26 27 -32q32 -7 87 -7q68 0 92 7q40 12 55 20q31 17 31 43q0 15 -10 33q-21 36 -49 113l-28 82q-13 36 -13 71v0q0 70 44 97
q45 29 99 -15q-2 -26 -26 -91q-9 29 -34 29q-19 0 -32.5 -14.5t-9.5 -32.5q7 -35 14 -69q17 -60 60 -137zM82 28q4 -53 40 -53v0q24 0 44.5 18.5t9.5 29.5q-24 24 -45 60q-20 33 -24 37q-4 3 -15 -26q-16 -41 -31 -60q-26 -34 -62 -34v90q48 0 69 38q14 23 19 70q4 38 9 38
q11 0 17 -20q18 -53 20 -59q20 -47 54 -95q27 -37 27 -76v0q0 -62 -52 -90q-54 -29 -104 13q-8 23 -8 43q0 26 14 48zM147 90q48 0 69 37q13 22 18 68q4 36 10 36l11 -111q-4 3 -19 -34q-19 -48 -42 -68q-10 10 -47 72zM317 16q-50 46 -50 95q0 11 4 20q6 -40 107 -40v-91
q-57 0 -61 16z" />
    <glyph glyph-name="ampersand" unicode="&#x26;" horiz-adv-x="384" 
d="M149 366q28 0 64 -30q-2 -26 -26 -91q-8 30 -32 30q-44 0 -44 -27q0 -26 12.5 -30.5t25.5 -8.5q13 -9 13 -41q0 -39 -7 -49q-2 -3 -23 -3q-62 0 -62 -79q0 -40 17 -58q23 -25 84 -25q73 0 97 32q15 19 15 62q0 48 -15 70q17 4 33 -42q13 -41 13 -76q0 -65 -13 -88
q-26 -48 -118 -48q-90 0 -120 57q-19 35 -19 112q0 43 7 64q10 31 41 48q-13 14 -13 55q0 25 5.5 70t13.5 63q15 33 51 33zM298 93q-17 -4 -34 -4q-36 0 -55 19t-19 48q0 42 47 73q-8 -25 -8 -30q0 -14 27 -20.5t49 -1.5q20 5 20 24q0 12 -8 29q11 -9 21 -30q11 -24 11 -47
q0 -48 -51 -60zM-1 0v90q54 0 70 31q4 -8 4 -14v0q0 -9 -11.5 -29.5t-4.5 -36.5q-9 -24 -20.5 -32.5t-37.5 -8.5zM296 -55q12 26 12 56q0 24 -8 46q28 44 85 44v-91q-53 0 -89 -55z" />
    <glyph glyph-name="quotesingle" unicode="'" horiz-adv-x="282" 
d="M104 0q-39 0 -60 35q-19 29 -19 69q0 73 136 112q-31 -14 -55 -39q-28 -29 -28 -58t42 -29q91 0 91 49q0 39 -39 76t-85 37q-35 0 -46 -28q5 43 24 75q24 43 60 43q51 0 86 -55q30 -47 30 -97q0 -56 -15 -104q-17 -53 -41.5 -69.5t-80.5 -16.5zM180 46q15 33 46 97
q8 -52 57 -52v-91q-45 0 -65 6q-32 10 -38 40zM-1 0v90q47 0 56 53q9 -17 45 -97q-11 -46 -101 -46zM15 424q23 35 65 67q27 -44 63 -69q-36 -24 -63 -63q-37 22 -65 65zM125 423q22 36 65 67q26 -43 63 -69q-36 -24 -63 -63q-38 22 -65 65z" />
    <glyph glyph-name="parenleft" unicode="(" horiz-adv-x="289" 
d="M5 -54q33 -60 99 -60q55 0 96 41q44 46 44 118q0 73 -44 121q-41 44 -94 44q-58 0 -89 -52q16 17 43 17q40 0 71 -33q35 -37 35 -95q0 -60 -31 -91q-26 -28 -67 -28q-34 0 -63 18zM5 50q23 35 65 66q27 -43 63 -68q-36 -25 -63 -63q-37 21 -65 65zM290 90h-62v-90h62v90z
" />
    <glyph glyph-name="parenright" unicode=")" horiz-adv-x="289" 
d="M284 -54q-33 -60 -100 -60q-54 0 -95 41q-44 46 -44 118q0 73 44 121q41 44 94 44q58 0 89 -52q-16 17 -43 17q-40 0 -71 -33q-35 -37 -35 -95q0 -60 31 -91q26 -28 67 -28q34 0 63 18zM284 50q-23 35 -65 66q-27 -43 -63 -68q36 -25 63 -63q37 21 65 65zM-1 90h62v-90
h-62v90z" />
    <glyph glyph-name="asterisk" unicode="*" horiz-adv-x="316" 
d="M312 137q-11 -7 -23 -14.5t-25 -7.5q-82 0 -82 156q0 43 11 73q17 44 53 44q29 0 65 -30q-2 -26 -27 -91q-8 30 -31 30q-18 0 -31 -15t-13 -33q0 -16 15 -28t32 -12q15 0 28 10q21 -39 28 -82zM19 148q-5 28 21 82q8 -20 32 -20q49 0 49 33q0 18 -14 36t-32 18
q-22 0 -30 -30q-15 39 -16 45q-8 25 -10 46q36 30 62 30q63 0 63 -168q0 -43 -17 -71q-21 -34 -61 -34q-36 0 -47 33zM144 393q-13 -1 -12 -9q0 -8 13 -24q-43 20 -45 72q-1 34 9 43t44 10q57 2 58 -22q0 -9 -17 -64t-18 -66q-1 -63 -5 -199q-1 -7 3 -11t11 -4q12 1 12 9
t-13 24q43 -20 45 -72q1 -34 -9.5 -43t-43.5 -10q-61 -2 -62 28q-1 14 18 63t20 62q5 52 5 199q0 7 -3 10.5t-10 3.5z" />
    <glyph glyph-name="plus" unicode="+" horiz-adv-x="0" 
d="M-149 455q32 0 41 18q4 8 3 29q-1 16 -4 27q32 -32 32 -88q0 -21 -12 -43q-18 -33 -54 -33q-87 0 -87 74q0 55 45 90q-9 -21 -8 -39q0 -18 5 -24q10 -11 39 -11z" />
    <glyph glyph-name="comma" unicode="," 
d="M200 12q-22 35 -65 66q-27 -43 -63 -68q36 -24 63 -63q38 22 65 65zM-1 90v-90h61q-1 8 -1 15q0 31 20.5 52t52.5 21q41 0 62 -36q18 -29 18 -73q0 -123 -105 -233q143 137 143 280q0 58 -27 102q-31 52 -85 52q-45 0 -70 -22q-28 -24 -25 -68h-44z" />
    <glyph glyph-name="hyphen" unicode="-" horiz-adv-x="388" 
d="M47 234q0 28 34 66q-5 -24 -1 -40q2 -6 29 -6q16 0 69.5 7.5t77.5 7.5q44 0 68 -19t24 -48t-34 -66q6 24 1 40q-2 7 -28 7q-15 0 -65.5 -7t-73.5 -7q-48 0 -74.5 18.5t-26.5 46.5z" />
    <glyph glyph-name="period" unicode="." 
d="M-1 0v90h61q-4 -22 9.5 -48.5t25.5 -32.5q18 -9 37 -9v0q42 0 67.5 36.5t12.5 80.5q32 -32 32 -88q0 -48 -25 -81q-30 -38 -81 -38q-49 0 -73 24.5t-22 65.5h-44zM201 77q-23 36 -65 67q-27 -43 -63 -68q36 -25 63 -63q37 21 65 64z" />
    <glyph glyph-name="slash" unicode="/" horiz-adv-x="81" 
d="M26 437q-12 -1 -12 -9t12 -24q-42 21 -42 74q0 39 14 46q9 4 34 4q28 1 45 -4q21 -7 21 -31q0 -23 -22 -66q-7 -13 -36 -131q-1 13 2 48.5t3 50.5q0 42 -19 42zM-1 90h83v-90h-83v90z" />
    <glyph glyph-name="zero" unicode="0" 
d="M119 88q36 0 51 6q24 10 24 40q0 42 -75 42q-34 0 -49 -6q-24 -9 -24 -37q0 -29 23 -39q15 -6 50 -6zM120 0q-104 0 -104 134q0 131 104 131q55 0 83 -41q25 -35 25 -92t-25 -92q-29 -40 -83 -40z" />
    <glyph glyph-name="one" unicode="1" horiz-adv-x="162" 
d="M77 271q-61 0 -70 -45q-3 8 -3 23q0 42 18 76q22 41 60 41q42 0 55 -40q7 -22 7 -76q0 1 -11 -149q-7 -101 -38 -101q-32 0 -32 33q0 31 28 92.5t28 77.5q0 23 -10 43q-12 25 -32 25z" />
    <glyph glyph-name="two" unicode="2" horiz-adv-x="196" 
d="M187 -7q6 45 -2 81q-4 14 -70.5 15t-66.5 8q-2 19 33 30q44 13 50 18q12 13 12 55q0 26 -5.5 70.5t-12.5 61.5q-15 34 -51 34q-29 0 -65 -30q2 -26 26 -91q9 30 32 30q44 0 44 -27q0 -22 -9 -29q-5 -4 -31 -10.5t-43.5 -28t-17.5 -52.5q0 -8 1 -15q10 -71 31 -94
q16 -18 50 -18v0q71 0 95 -8z" />
    <glyph glyph-name="three" unicode="3" horiz-adv-x="225" 
d="M116 366q-29 0 -64 -30q2 -26 26 -91q8 30 31 30q45 0 45 -27q0 -26 -13 -30.5t-25 -8.5q-13 -9 -13 -41q0 -39 7 -49q2 -3 22 -3q62 0 62 -79q0 -31 -18 -42q-14 -9 -47 -9q-84 0 -84 41q0 20 20 50q-63 -58 -63 -103q0 -36 41 -59q35 -19 75 -19q102 0 102 137
q0 43 -6 64q-10 31 -41 48q13 14 13 55q0 25 -5.5 70t-13.5 63q-15 33 -51 33z" />
    <glyph glyph-name="four" unicode="4" horiz-adv-x="212" 
d="M156 0q-33 0 -33 33q0 29 24 91q22 58 19 79q-16 -15 -19 -17q-10 -7 -25 -7q-67 0 -94.5 33.5t-27.5 113.5q0 35 33 69q29 30 58 35q-28 -18 -36 -29q-16 -22 -16 -66q0 -64 82 -64q32 0 49 29q10 17 18 55q6 28 12 27q5 -2 5 -38q0 -33 -6 -126.5t-5 -116.5
q-8 -101 -38 -101z" />
    <glyph glyph-name="five" unicode="5" horiz-adv-x="238" 
d="M36 149q3 -3 8 -3q4 0 16 3t20 3q67 0 100 -41q25 -31 25 -74q0 -31 -18 -42q-14 -9 -47 -9q-84 0 -84 41q0 20 20 50q-63 -58 -63 -103q0 -36 41 -59q35 -19 75 -19q102 0 102 137q0 39 -30 107q-33 74 -66 85q-27 10 -52 11q-14 1 -28 1q-8 0 -6 7q3 9 21 10h42
q82 1 95 38q2 5 2 16q0 22 -7 52.5t-15 41.5q2 -30 -10 -42q-20 -20 -81 -16q-13 1 -33 6t-27 5q-26 0 -26 -70q0 -42 8 -84.5t18 -51.5z" />
    <glyph glyph-name="six" unicode="6" horiz-adv-x="244" 
d="M119 88q36 0 51 6q24 10 24 40q0 42 -75 42q-34 0 -49 -6q-24 -9 -24 -37q0 -29 23 -39q15 -6 50 -6zM120 0q-104 0 -104 134q0 131 104 131q55 0 83 -41q25 -35 25 -92t-25 -92q-29 -40 -83 -40zM149 492q25 5 27 5q9 0 19 -8.5t10 -30.5q0 -59 -48 -96q10 26 10 34
q0 6 -18 6q-39 0 -73 -73q-35 -76 -35 -170l-25 -25q0 133 51 250q45 102 82 108z" />
    <glyph glyph-name="seven" unicode="7" horiz-adv-x="240" 
d="M185 251q-66 3 -72 3q-58 0 -58 -27q0 -22 32 -71q-85 79 -85 137q0 28 19 44q12 10 95 10q77 0 92 -10q32 -24 32 -59q0 -42 -58 -127q-78 -114 -95 -151q-20 -43 -20 -91q0 -39 22 -45q13 -3 13 9q0 9 -5 18q45 -42 45 -81q0 -48 -53 -48t-53 97q0 42 10 93q9 44 18 64
q17 38 79 132q51 77 51 94q0 9 -9 9z" />
    <glyph glyph-name="eight" unicode="8" 
d="M119 88q88 0 88 46q0 42 -88 42q-80 0 -80 -43q0 -29 27 -39q16 -6 53 -6zM120 0q-111 0 -111 134q0 131 111 131q56 0 89 -41q31 -37 31 -92t-31 -92q-33 -40 -89 -40zM119 265q75 0 75 31q0 41 -76 41q-72 0 -72 -42q0 -30 73 -30zM120 176q-104 0 -104 121
q0 53 29.5 90.5t73.5 37.5q48 0 78.5 -38.5t30.5 -91.5q0 -48 -25 -81q-29 -38 -83 -38z" />
    <glyph glyph-name="nine" unicode="9" horiz-adv-x="244" 
d="M119 88q36 0 51 6q24 10 24 40q0 42 -75 42q-34 0 -49 -6q-24 -9 -24 -37q0 -29 23 -39q15 -6 50 -6zM120 0q-104 0 -104 134q0 131 104 131q55 0 83 -41q25 -35 25 -92t-25 -92q-29 -40 -83 -40zM218 -114q0 92 -2 109q-7 77 -38 77l50 60q0 -44 8 -128t8 -123
q0 -73 -13 -96q-25 -42 -116 -42q-142 0 -142 78q0 45 63 103q-19 -30 -19 -50q0 -28 29 -36q19 -5 80 -5q92 0 92 53z" />
    <glyph glyph-name="colon" unicode=":" 
d="M234 0h17v90h-22q-59 0 -108 11q-72 16 -72 50q0 25 70 25q74 0 74 -28q0 -45 -95 -45q9 -24 21 -35q15 -14 55 -27q54 48 52 129q-1 34 -29 63q-32 32 -77 32q-50 -1 -77 -28t-26 -71q2 -84 39 -120q49 -46 178 -46zM15 357q23 36 65 67q27 -43 63 -68q-36 -25 -63 -63
q-37 21 -65 64zM125 356q22 36 65 67q26 -43 63 -68q-36 -25 -63 -63q-38 21 -65 64z" />
    <glyph glyph-name="semicolon" unicode=";" 
d="M234 0h17v90h-22q-59 0 -108 11q-72 16 -72 50q0 25 70 25q74 0 74 -28q0 -31 -67 -46q-52 -12 -127 -12v-90q17 0 16 0h-1h30q108 0 154 70q29 44 28 100q-1 34 -29 63q-32 32 -77 32q-50 -1 -76.5 -28t-26.5 -71q0 -61 39 -104q55 -62 178 -62zM15 357q23 36 65 67
q27 -43 63 -68q-36 -25 -63 -63q-37 21 -65 64zM125 356q22 36 65 67q26 -43 63 -68q-36 -25 -63 -63q-38 21 -65 64z" />
    <glyph glyph-name="less" unicode="&#x3c;" 
d="M50 78q23 -35 65 -66q27 43 63 68q-36 24 -63 63q-37 -22 -65 -65zM251 0v90h-61q1 -8 1 -15q0 -31 -20.5 -52t-52.5 -21q-41 0 -62 36q-17 29 -17 73q0 123 104 233q-143 -137 -143 -280q0 -58 27 -102q32 -52 86 -52q44 0 70.5 23t23.5 67h44z" />
    <glyph glyph-name="equal" unicode="=" horiz-adv-x="0" 
d="M-96 396q31 0 40 17q4 9 3 30q0 15 -3 26q32 -31 32 -87q0 -22 -12 -43q-19 -33 -55 -33q-87 0 -87 74q0 54 45 89q-9 -21 -8 -39q1 -17 6 -23q9 -11 39 -11z" />
    <glyph glyph-name="greater" unicode="&#x3e;" 
d="M251 0v90h-61q4 -22 -9 -48.5t-25 -32.5q-19 -9 -38 -9q-35 0 -59.5 27t-24.5 64q0 13 4 26q-32 -32 -32 -88q0 -48 26 -81q29 -38 81 -38q48 0 72 24.5t22 65.5h44zM50 77q22 36 64 67q27 -43 63 -68q-36 -25 -63 -63q-37 21 -64 64z" />
    <glyph glyph-name="question" unicode="?" horiz-adv-x="305" 
d="M-1 90v-90h95q80 0 80 52q0 16 -9.5 56t-9.5 60q0 32 15 45q1 1 58 35q30 17 52.5 67t22.5 95q0 49 -30 59q-21 7 -104 7q-118 0 -132 -12q-30 -25 -30 -51q0 -47 81 -122q-21 33 -21 56q0 26 26.5 32t68.5 6q43 0 92 -6q21 -3 21 -8q0 -6 -39 -24q-50 -23 -71 -38
q-39 -26 -39 -52q0 -22 4.5 -61.5t4.5 -54.5q0 -51 -42 -51h-94zM202 -95q-28 43 -65 64q-27 -38 -63 -63q36 -25 63 -68q42 31 65 67z" />
    <glyph glyph-name="at" unicode="@" horiz-adv-x="232" 
d="M233 0v91q-99 0 -111 53q-3 13 -1 37q4 32 4 37q0 13 -5 18q-9 8 -24 -50t-15 -102q0 -20 5 -31q21 -54 103 -53h44z" />
    <glyph glyph-name="A" unicode="A" horiz-adv-x="282" 
d="M104 0q-39 0 -60 35q-19 29 -19 69q0 73 136 112q-31 -14 -55 -39q-28 -29 -28 -58t42 -29q91 0 91 49q0 39 -39 76t-85 37q-35 0 -46 -28q5 43 24 75q24 43 60 43q51 0 86 -55q30 -47 30 -97q0 -56 -15 -104q-17 -53 -41.5 -69.5t-80.5 -16.5zM180 46q15 33 46 97
q8 -52 57 -52v-91q-45 0 -65 6q-32 10 -38 40z" />
    <glyph glyph-name="B" unicode="B" horiz-adv-x="293" 
d="M192 46q15 33 46 97q8 -52 56 -52v-91q-45 0 -65 6q-31 10 -37 40zM249 104q0 -40 -19 -69q-21 -35 -59 -35q-57 0 -81.5 16.5t-41.5 69.5q-12 39 -12 115q0 79 10 141q17 100 56 108q72 14 91.5 -3t19.5 -45q0 -58 -85 -137q30 46 30 70q0 21 -23 25h-33q-45 0 -45 -150
q0 -29 2 -54q3 -32 38 -51q28 -15 58 -15q26 0 48.5 12.5t22.5 31.5q0 16 -20 26t-48 10q-58 0 -82 -35q4 60 25 98q41 20 71 20q78 0 77 -149z" />
    <glyph glyph-name="C" unicode="C" horiz-adv-x="234" 
d="M235 0h-113q-64 0 -78 104q-3 27 -3 51v0q0 81 34 108q37 28 94 -20q-2 -26 -26 -91q-8 30 -32 30q-16 0 -30 -14.5t-14 -33.5t24 -32q21 -12 48 -12h96v-90z" />
    <glyph glyph-name="D" unicode="D" horiz-adv-x="282" 
d="M197 54q6 12 7 26v0v28q0 17 8 31q29 -48 71 -48v-91q-76 0 -86 54zM122 0q-39 0 -61 35q-21 31 -17 69q10 84 97 103q-53 -33 -53 -76q0 -6 1 -12q5 -29 50 -29q53 0 53 38q0 19 -17.5 46.5t-58.5 78.5q-29 36 -41 66q-11 25 -11 54q0 77 69 77q27 0 43 -20.5t16 -49.5
q0 -27 -14 -49q-5 31 -20 31q-10 0 -18.5 -13.5t-6.5 -28.5q7 -45 70 -140q34 -53 34 -88q0 -9 -2 -17q-13 -43 -35.5 -59t-77.5 -16z" />
    <glyph glyph-name="E" unicode="E" horiz-adv-x="207" 
d="M130 166v0q0 17 -33 13q-32 -3 -32 -24q0 -35 15.5 -49.5t58.5 -15.5h69v-90h-100q-38 0 -58 35q-16 28 -16 69q0 92 4 114q10 50 48 52q52 3 75.5 -5t23.5 -33q0 -11 -4 -25q-24 -85 -86 -152l-34 49q27 10 48 27.5t21 34.5z" />
    <glyph glyph-name="F" unicode="F" horiz-adv-x="234" 
d="M40 230q-2 -26 -26 -91q-8 26 -40 26v0q-25 0 -44.5 -15t-6.5 -29q30 -33 167 -33q30 0 83 2q48 1 62 1v-91q-167 3 -187 6q-122 14 -138 71q-10 34 -10 67v0q0 73 42 101q43 30 98 -15zM90 201q0 104 3 142q7 102 33 107q73 13 92 -3.5t19 -44.5q0 -58 -85 -137
q30 46 30 70v0q0 30 -56 25q-22 -2 -22 -96q0 -62 10.5 -181.5t10.5 -131.5q0 -208 -46 -221q-19 -6 -85 -6q-83 0 -94 10q-18 16 -18 44q0 58 85 137q-27 -40 -27 -64q0 -34 61 -34q12 0 34 1.5t29 1.5q35 0 35 162q0 57 -4.5 138z" />
    <glyph glyph-name="G" unicode="G" horiz-adv-x="311" 
d="M248 -49q1 -88 -8 -124q-20 -81 -93 -95q-27 -5 -117 -5q-107 0 -119 9q-30 25 -30 52q0 46 81 122q-21 -33 -21 -56q0 -26 27 -32q32 -7 87 -7q67 0 92 7q39 11 52 24q22 22 23 72q0 6 2 37q1 24 1 39q0 83 -27 118q-18 24 -58 24q-21 0 -36.5 -7t-15.5 -16
q0 -23 67 -23q44 0 52 3q19 9 20 47q1 40 -16.5 82t-43.5 67l34 93q44 -37 53 -94q6 -37 6 -90q0 -120 -25 -162q-21 -36 -78 -36q-103 0 -103 98q0 127 71 127q65 0 92.5 -59t30.5 -215zM241 77q8 16 2.5 45.5t3.5 45.5q5 -77 64 -77v-91q-55 0 -70 77z" />
    <glyph glyph-name="H" unicode="H" horiz-adv-x="282" 
d="M89 134q4 18 26.5 30.5t44.5 12.5q32 0 32 -24q0 -10 -4 -31t-4 -29q0 -93 99 -93v91q-78 0 -75 31q1 10 12 41.5t11 48.5q0 13 -6 23q-21 35 -56 35q-37 0 -70 -37t-39 -90q-2 -20 -15 -20q-27 0 -27 71q0 63 16 111q20 55 53 55h33q23 -4 23 -25q0 -24 -30 -70
q86 79 86 137q0 28 -19 44q-10 9 -43 9q-27 0 -50 -5q-54 -12 -73 -95q-14 -62 -15 -214q0 -38 8 -86q10 -55 22 -55q14 0 25 21q15 29 35 113z" />
    <glyph glyph-name="I" unicode="I" horiz-adv-x="220" 
d="M66 330q22 36 65 67q26 -43 63 -68q-37 -25 -63 -63q-38 21 -65 64zM221 0v91q-27 0 -58 14q-36 16 -41 39q-4 13 -1 37q4 33 4 37q0 13 -5 18q-9 8 -24 -50t-15 -102q0 -20 5 -31q21 -54 103 -53h32z" />
    <glyph glyph-name="J" unicode="J" horiz-adv-x="298" 
d="M217 236q35 -10 35 -119q0 -29 -3 -91q-3 -56 -2 -75q1 -42 1 -51q0 -149 -99 -168q-27 -5 -117 -5q-108 0 -119 9q-30 25 -30 52q0 46 81 122q-22 -33 -22 -56q0 -26 27 -32q32 -7 88 -7q67 0 92 7q39 11 52 24q22 22 23 72q3 216 -3 227q-7 15 -47 15q-62 0 -62 -36
q0 -6 2 -12q-13 9 -25 34.5t-12 48.5q0 18 9 28q19 21 67 21q33 0 64 -8zM224 76q7 15 8 48.5t9 49.5q0 -31 17 -58.5t41 -27.5v-91q-60 0 -75 79zM230 338q-27 -44 -64 -65q-27 38 -63 63q36 25 63 68q42 -31 64 -66z" />
    <glyph glyph-name="K" unicode="K" horiz-adv-x="268" 
d="M218 144q14 9 25.5 34t11.5 44q0 8 -3 13q-20 37 -55 37q-29 0 -56.5 -23t-32.5 -48q-8 36 -8 60q0 25 5 56q3 17 19.5 31t33.5 14q25 0 30 -31q14 22 14 49q0 29 -16 49.5t-43 20.5q-72 0 -72 -86q0 -21 5 -44q14 -71 14 -150q0 -15 -1 -26q-2 -19 -18.5 -36.5
t-31.5 -17.5q-17 0 -17 27q0 14 5 33q-16 -14 -29 -45t-13 -58q0 -47 41 -47q31 0 53.5 29t29.5 69q13 -98 160 -98v91q-50 0 -93 11q-61 14 -59 43q3 37 47 37q22 0 39.5 -11t14.5 -27z" />
    <glyph glyph-name="L" unicode="L" horiz-adv-x="185" 
d="M50 450q72 13 91.5 -3.5t19.5 -44.5q0 -58 -85 -137q30 46 30 70v0q0 30 -56 25q-28 -3 -28 -85q0 -85 14 -141q7 -28 57 -38q29 -5 93 -5v-91q-9 0 -29 -1h-30q-89 0 -100 63q-21 121 -21 219q0 76 12 121t32 48z" />
    <glyph glyph-name="M" unicode="M" horiz-adv-x="484" 
d="M485 0q-98 0 -98 141q0 17 1 38q-53 0 -68 -14q23 -29 23 -55q0 -31 -17 -55q-19 -27 -49 -27t-47 31q-13 25 -13 58q0 15 22 49q-28 13 -75 13q1 -66 -33 -119q-38 -60 -101 -60q-57 0 -57 48t58 79q-15 -23 -15 -29q0 -8 14 -8q44 0 83 59q37 54 37 105q0 9 -1 16
q46 0 70.5 -9.5t58.5 -40.5q26 28 62 39q23 7 73 11q-3 -26 -3 -52q0 -127 75 -127v-91zM279 150q-19 -11 -19 -20q0 -12 18 -12q19 0 19 14q0 8 -18 18z" />
    <glyph glyph-name="N" unicode="N" horiz-adv-x="305" 
d="M112 134q5 18 27 30.5t44 12.5q32 0 32 -24q0 -10 -3.5 -31t-3.5 -29q0 -93 98 -93v91q-77 0 -75 31q1 10 12 41.5t11 48.5q0 13 -6 23q-20 35 -55 35q-38 0 -71 -37t-38 -90q-2 -13 -12.5 -25t-22.5 -12q-27 0 -30 61q-1 19 6 32q6 10 14 10t8 -11q0 -7 -3 -15
q59 55 59 89v0q0 19 -18 26t-45 1q-14 -4 -27 -30q-15 -33 -15 -86q0 -45 12 -99q18 -84 42 -84q15 0 26 21q15 29 34 113z" />
    <glyph glyph-name="O" unicode="O" 
d="M234 0h17v90h-22q-59 0 -108 11q-72 16 -72 50q0 25 70 25q74 0 74 -28q0 -45 -95 -45q9 -24 21 -35q15 -14 55 -27q54 48 52 129q-1 34 -29 63q-32 32 -77 32q-50 -1 -77 -28t-26 -71q2 -84 39 -120q49 -46 178 -46z" />
    <glyph glyph-name="P" unicode="P" horiz-adv-x="274" 
d="M27 -270q-22 -5 -50 -5q-32 0 -43 9q-18 16 -18 44q0 58 85 137q-30 -46 -30 -70q0 -27 35 -27q5 0 21 2q20 2 20 65q0 38 -9 132q-10 100 -11 140q0 45 25 74q27 33 75 34q45 0 77 -32q28 -29 29 -63q1 -47 -22 -98q-33 -72 -96 -72q-44 0 -79 47q-30 41 -36 89
q-10 70 -10 101q0 115 104 122l-28 -89q-7 2 -14 2v0q-33 0 -38 -44q-4 -44 22 -83q29 -45 79 -46q39 0 62 14.5t23 34.5q0 28 -74 28q-71 0 -71 -53q0 -65 9 -168q8 -99 8 -128q0 -86 -45 -97zM172 46q15 33 46 97q8 -52 57 -52l-1 -91q-80 0 -102 46z" />
    <glyph glyph-name="Q" unicode="Q" 
d="M386 -130q146 1 169 44q9 17 9 33q0 36 -33 53q-5 -40 -89 -40q-139 0 -240 33q-153 48 -153 158q0 25 70 25q74 0 74 -28q0 -55 -141 -58q10 -41 24.5 -55t28.5 -28q72 17 102 78q20 40 19 85q-1 34 -29 63q-32 32 -77 32q-50 -1 -76.5 -28t-26.5 -71q0 -155 134 -235
q102 -61 235 -61z" />
    <glyph glyph-name="R" unicode="R" horiz-adv-x="318" 
d="M106 96q32 91 33 93q15 52 15 97q0 63 -59 63q-24 0 -42 -37q-15 -31 -15 -58q0 -101 57 -101q16 0 43.5 14t44.5 14q44 0 44 -30q0 -9 -4 -28.5t-4 -29.5q0 -93 100 -93v91q-76 0 -76 31q0 14 11.5 43.5t11.5 46.5q0 23 -17 37t-40 14q-27 0 -71.5 -19t-52.5 -19
q-19 0 -19 14q0 20 33 20q17 0 17 -25q0 -44 -26 -91q-29 -53 -70 -53q-14 0 -14 8q0 6 15 29q-58 -31 -58 -79t58 -48q35 0 57 32q12 18 28 64z" />
    <glyph glyph-name="S" unicode="S" horiz-adv-x="329" 
d="M240 -82q1 34 -33 98q-42 78 -48 97q-10 34 -10 67v0q0 73 42 101q44 30 98 -15q-2 -26 -26 -91q-8 29 -34 29v0q-18 0 -32 -14.5t-10 -32.5q4 -17 44 -99q34 -70 35 -107q1 -88 -8 -124q-20 -81 -93 -95q-27 -5 -117 -5q-107 0 -119 9q-30 25 -30 52q0 46 81 122
q-21 -33 -21 -56q0 -26 27 -32q32 -7 87 -7q67 0 92 7q39 11 52 24q22 22 23 72zM231 16q-50 46 -50 95q0 11 4 20q7 -40 144 -40v-91q-56 0 -98 16z" />
    <glyph glyph-name="T" unicode="T" horiz-adv-x="239" 
d="M105 120q4 -29 135 -29v-91q-151 0 -161 58q-3 16 -3 33q0 31 14 76t13 65h18q1 -26 -8.5 -60t-7.5 -52zM182 204q-27 -5 -84 -5q-69 0 -81 10q-20 16 -20 45q0 53 57 91q-8 -25 -8 -31q0 -14 28 -20q32 -7 58 -7q25 0 50 7q32 10 32 25q0 8 -9 26q14 -8 27 -31
q15 -26 15 -49q0 -48 -65 -61z" />
    <glyph glyph-name="U" unicode="U" horiz-adv-x="453" 
d="M365 60q16 26 47 84q5 -29 10 -38q9 -15 32 -15v-91q-77 0 -89 60zM378 270q21 -12 37 -57q15 -40 15 -68q0 -62 -42 -103q-54 -54 -167 -54q-221 0 -221 170q0 32 16 66q16 31 37 46q-19 -21 -19 -65q0 -22 4 -38q12 -41 61.5 -64t121.5 -23q67 0 114 25q44 23 59 63
q3 8 3 21q0 42 -19 81z" />
    <glyph glyph-name="V" unicode="V" horiz-adv-x="307" 
d="M220 60q15 26 46 84q0 -53 42 -53v-91q-77 0 -88 60zM221 270q23 -11 37.5 -47.5t14.5 -77.5q0 -64 -45 -103q-48 -42 -136 -42q-92 0 -92 116q0 21 3 53.5t15 66.5t18 34q5 0 5 -43q-1 -54 0 -60q11 -76 50 -76q50 0 94 20q52 22 52 57q0 30 -67 26q-14 0 -14 -12
q0 -6 15 -29q-58 31 -58 79q0 55 48 55q25 0 60 -17z" />
    <glyph glyph-name="W" unicode="W" horiz-adv-x="487" 
d="M411 108l5 30q7 -47 72 -47v-91q-38 0 -55 20q-22 25 -22 88zM423 270q16 -8 27.5 -35.5t11.5 -57.5q0 -79 -67 -79q-10 0 -22 2q-7 -32 -34 -63q-44 -50 -117 -50q-222 0 -222 171q0 32 17 66q15 31 36 46q-19 -21 -19 -65q0 -22 5 -38q11 -41 61 -64.5t122 -23.5
q48 0 78.5 29t30.5 70q0 7 -2 15q21 -13 41 -13v0q31 0 47.5 25.5t5.5 64.5z" />
    <glyph glyph-name="X" unicode="X" horiz-adv-x="345" 
d="M346 0h-63q-65 0 -79 104q-3 27 -3 51v0q0 81 35 108q36 28 93 -20q-2 -26 -26 -91q-8 30 -31 30q-17 0 -31 -14.5t-14 -33.5t24 -32q21 -12 48 -12h47v-90zM188 104q1 -40 -18 -69q-22 -35 -60 -35q-62 0 -81 -18q-13 -12 -11 -41q-8 12 -15 42.5t-7 51.5q0 11 2 17
q14 38 96 38q27 0 50.5 12.5t20.5 31.5q-3 20 -17 34t-29 14q-22 0 -30 -30q-8 21 -15 41q-9 27 -11 50q36 30 62 30q61 0 63 -169z" />
    <glyph glyph-name="Y" unicode="Y" horiz-adv-x="349" 
d="M54 158q0 35 33 69q29 30 58 35q-52 -33 -52 -95q0 -40 38 -64q32 -21 75 -21q32 0 50 16q10 9 18 28q6 15 11 14q7 -2 9 -37q1 -23 0 -75q-1 -61 -1 -77q2 -88 -7 -124q-21 -81 -93 -95q-27 -5 -117 -5q-108 0 -119 9q-30 25 -30 52q0 46 81 122q-22 -33 -22 -56
q0 -26 29.5 -32.5t85.5 -6.5q67 0 92 7q39 11 52 24q22 22 23 72q0 90 -8 90q-1 0 -18 -8.5t-35 -8.5q-153 0 -153 167zM281 62q4 10 4 19v0q0 1 -5 22q-3 13 4 28q12 -40 66 -40v-91q-33 0 -48 14t-21 48z" />
    <glyph glyph-name="Z" unicode="Z" horiz-adv-x="329" 
d="M159 181q-53 0 -83 -29q-26 -26 -26 -67q0 -50 37 -85q-24 0 -41 40q-15 35 -15 78q0 15 2 28q11 53 49 89t77 36q64 0 87 -27q32 -36 32 -145q0 -80 -22 -99q10 -11 13 -18q5 -11 6 -31q1 -88 -8 -124q-20 -81 -93 -95q-27 -5 -117 -5q-107 0 -119 9q-30 25 -30 52
q0 46 81 122q-21 -33 -21 -56q0 -26 27 -32q32 -7 87 -7q67 0 92 7q39 11 52 24q22 22 23 72q-1 79 -62 79h-6h-6q-9 0 -10 3q-7 14 -7 49t11 41q7 3 19 3h10.5h11.5q35 0 35 35q0 53 -86 53zM261 62q5 10 5 19v0q0 1 -6 22q-3 13 5 28q11 -40 65 -40v-91q-33 0 -48 14
t-21 48z" />
    <glyph glyph-name="bracketleft" unicode="[" horiz-adv-x="473" 
d="M-1 0v90q23 0 30 11q5 7 10 34q8 -23 31 -78q-14 -57 -71 -57zM-1 0v90q23 0 30 11q5 7 10 34q8 -23 31 -78q-14 -57 -71 -57zM-1 0v90q23 0 30 11q5 7 10 34q8 -23 31 -78q-14 -57 -71 -57zM385 60q16 26 47 84q5 -29 10 -38q9 -15 31 -15v-91q-77 0 -88 60zM404 270
q21 -12 38 -57q14 -40 14 -68q0 -61 -41 -102q-54 -52 -167 -52q-222 0 -222 167q0 32 17 66q15 31 36 46q-19 -21 -19 -65q0 -22 5 -38q11 -41 62 -63q48 -22 121 -22q140 0 172 86q3 8 3 21q0 42 -19 81zM127 248q22 35 65 66q26 -43 63 -68q-37 -25 -63 -63
q-38 21 -65 65zM235 247q22 35 65 66q26 -43 63 -68q-37 -25 -63 -63q-38 21 -65 65z" />
    <glyph glyph-name="backslash" unicode="\" horiz-adv-x="0" 
d="M-50 356q-22 36 -64 67q-27 -43 -63 -68q36 -25 63 -63q37 21 64 64z" />
    <glyph glyph-name="bracketright" unicode="]" horiz-adv-x="0" 
d="M-113 358q-23 36 -65 67q-27 -43 -63 -69q36 -24 63 -63q37 22 65 65zM22 360q-23 36 -65 67q-27 -43 -63 -69q36 -24 63 -63q37 22 65 65zM-48 464q-22 35 -65 66q-26 -43 -63 -68q37 -25 63 -63q38 21 65 65z" />
    <glyph glyph-name="asciicircum" unicode="^" horiz-adv-x="0" 
d="M-136 497q26 -53 27 -54q17 -28 40 -28q12 0 27 7q-25 -55 -52 -55q-9 0 -23.5 9t-18.5 9t-19.5 -9t-25.5 -9q-27 0 -46 52q14 -5 25 -5q28 0 43 28q12 27 23 55z" />
    <glyph glyph-name="underscore" unicode="_" horiz-adv-x="388" 
d="M47 -115q0 29 34 67q-5 -24 -1 -40q2 -7 29 -7q16 0 69.5 8t77.5 8q44 0 68 -19t24 -48t-34 -66q6 24 1 39q-2 8 -28 8q-15 0 -65.5 -7.5t-73.5 -7.5q-48 0 -74.5 19t-26.5 46zM389 90h-390v-90h390v90z" />
    <glyph glyph-name="grave" unicode="`" horiz-adv-x="67" 
d="M38 -59q8 12 15 42.5t7 51.5q0 11 -2 17q-9 26 -18.5 32t-40.5 6v-90q42 0 39 -59z" />
    <glyph glyph-name="a" unicode="a" horiz-adv-x="282" 
d="M104 0q-39 0 -60 35q-19 29 -19 69q0 73 136 112q-31 -14 -55 -39q-28 -29 -28 -58t42 -29q91 0 91 49q0 39 -39 76t-85 37q-35 0 -46 -28q5 43 24 75q24 43 60 43q51 0 86 -55q30 -47 30 -97q0 -56 -15 -104q-17 -53 -41.5 -69.5t-80.5 -16.5zM180 46q15 33 46 97
q8 -52 57 -52v-91q-45 0 -65 6q-32 10 -38 40zM-1 0v90q47 0 56 53q9 -17 45 -97q-11 -46 -101 -46z" />
    <glyph glyph-name="b" unicode="b" horiz-adv-x="293" 
d="M-1 0v90q47 0 56 53q9 -17 45 -97q-11 -46 -101 -46zM192 46q15 33 46 97q8 -52 56 -52v-91q-45 0 -65 6q-31 10 -37 40zM249 104q0 -40 -19 -69q-21 -35 -59 -35q-57 0 -81.5 16.5t-41.5 69.5q-12 39 -12 115q0 79 10 141q17 100 56 108q72 14 91.5 -3t19.5 -45
q0 -58 -85 -137q30 46 30 70q0 21 -23 25h-33q-45 0 -45 -150q0 -29 2 -54q3 -32 38 -51q28 -15 58 -15q26 0 48.5 12.5t22.5 31.5q0 16 -20 26t-48 10q-58 0 -82 -35q4 60 25 98q41 20 71 20q78 0 77 -149z" />
    <glyph glyph-name="c" unicode="c" horiz-adv-x="207" 
d="M208 0h-86q-64 0 -78 104q-3 27 -3 51v0q0 81 34 108q37 28 94 -20q-2 -26 -26 -91q-8 30 -32 30q-16 0 -30 -14.5t-14 -33.5t24 -32q21 -12 48 -12h69v-90zM-1 0v90q47 0 56 53q9 -17 45 -97q-11 -46 -101 -46z" />
    <glyph glyph-name="d" unicode="d" horiz-adv-x="282" 
d="M197 54q6 12 7 26v0v28q0 17 8 31q29 -48 71 -48v-91q-76 0 -86 54zM-1 0v90q37 0 61 53q9 -21 32 -75q-4 -33 -31.5 -50.5t-61.5 -17.5zM122 0q-39 0 -61 35q-21 31 -17 69q10 84 97 103q-53 -33 -53 -76q0 -6 1 -12q5 -29 50 -29q53 0 53 38q0 19 -17.5 46.5
t-58.5 78.5q-29 36 -41 66q-11 25 -11 54q0 77 69 77q27 0 43 -20.5t16 -49.5q0 -27 -14 -49q-5 31 -20 31q-10 0 -18.5 -13.5t-6.5 -28.5q7 -45 70 -140q34 -53 34 -88q0 -9 -2 -17q-13 -43 -35.5 -59t-77.5 -16z" />
    <glyph glyph-name="e" unicode="e" horiz-adv-x="207" 
d="M86 270q-38 -2 -48 -52q-4 -22 -4 -114q0 -41 16 -69q20 -35 58 -35h100v90h-69q-43 1 -58.5 15.5t-15.5 49.5q0 25 39 25v0q33 0 25 -20q-13 -30 -50.5 -48.5t-79.5 -21.5v-90q52 0 109 70q52 64 73 137q4 14 4 25q0 25 -23.5 33t-75.5 5z" />
    <glyph glyph-name="f" unicode="f" horiz-adv-x="185" 
d="M-1 0v90q43 0 50 66l8 -92q-9 -37 -18 -48q-12 -16 -40 -16zM41 201q0 104 3 142q8 102 33 107q73 13 92.5 -3.5t19.5 -44.5q0 -58 -85 -137q30 46 30 70v0q0 30 -57 25q-22 -2 -22 -96q0 -62 11 -181.5t11 -131.5q0 -71 -8 -128q-12 -88 -38 -93q-73 -13 -92.5 3.5
t-19.5 44.5q0 58 86 137q-31 -46 -31 -70q0 -27 36 -27q4 0 21 2q22 2 22 126q0 62 -6 158t-6 97zM58 46l-9 110q16 -45 56 -58q22 -7 81 -7v-91q-62 0 -85 6q-38 9 -43 40z" />
    <glyph glyph-name="g" unicode="g" horiz-adv-x="329" 
d="M266 -49q1 -88 -8 -124q-20 -81 -93 -95q-27 -5 -117 -5q-107 0 -119 9q-30 25 -30 52q0 46 81 122q-21 -33 -21 -56q0 -26 27 -32q32 -7 87 -7q67 0 92 7q39 11 52 24q22 22 23 72q0 6 2 37q1 24 1 39q0 83 -27 118q-18 24 -58 24q-21 0 -36.5 -7t-15.5 -16
q0 -23 67 -23q44 0 52 3q19 9 20 47q1 40 -16.5 82t-43.5 67l34 93q44 -37 53 -94q6 -37 6 -90q0 -120 -25 -162q-21 -36 -78 -36q-103 0 -103 98q0 127 71 127q65 0 92.5 -59t30.5 -215zM259 77q8 16 2.5 45.5t3.5 45.5q5 -77 64 -77v-91q-55 0 -70 77zM-1 0v90q43 0 65 10
q32 14 31 49q5 -11 5 -21q0 -5 -2 -14t-2 -14q0 -10 6 -21q0 -35 -29.5 -57t-73.5 -22z" />
    <glyph glyph-name="h" unicode="h" horiz-adv-x="282" 
d="M192 153q0 25 -34 25q-23 0 -44.5 -13t-24.5 -31q-9 -62 -34 -98t-56 -36v90q56 0 61.5 53t38.5 90t70 37q35 0 56 -35q6 -10 6 -23q0 -17 -11 -48.5t-12 -41.5q-3 -31 75 -31v-91q-99 0 -99 93q0 8 4 29t4 31zM17 319q-10 26 -10 55q0 76 69 76q27 0 42.5 -20.5
t15.5 -49.5q0 -27 -13 -49q-6 31 -26 31q-13 0 -25.5 -13t-12.5 -28q0 -29 11 -64q15 -47 43 -78q-54 35 -94 140z" />
    <glyph glyph-name="i" unicode="i" horiz-adv-x="220" 
d="M-1 90v-90q50 0 66 7q26 10 32 46q12 -41 46 -50q13 -3 78 -3v91q-29 0 -57 14q-31 17 -33 39q-1 33 -3 67q-1 25 -8 25q-5 0 -15 -29q-14 -40 -23 -58q-12 -22 -34 -40q-25 -19 -49 -19zM66 330q22 36 65 67q26 -43 63 -68q-37 -25 -63 -63q-38 21 -65 64z" />
    <glyph glyph-name="j" unicode="j" horiz-adv-x="209" 
d="M16 0h-17v90h15q30 0 57 19q24 17 36 40q9 18 23 58q11 29 15 29q13 0 13 -114v-171q1 -42 1 -51q0 -149 -100 -168q-26 -5 -116 -5q-108 0 -119 9q-31 25 -31 52q0 46 82 122q-22 -33 -22 -56q0 -26 27 -32q32 -7 88 -7q67 0 91 7q39 11 53 24q22 22 23 72l-2 156
q-12 -50 -46 -65q-21 -9 -71 -9zM178 338q-27 -44 -65 -65q-26 38 -63 63q37 25 63 68q43 -31 65 -66zM135 76q7 15 8 48.5t9 49.5q0 -31 17 -58.5t41 -27.5v-91q-60 0 -75 79z" />
    <glyph glyph-name="k" unicode="k" horiz-adv-x="241" 
d="M191 144q14 9 25.5 34t11.5 44q0 8 -3 13q-20 37 -55 37q-29 0 -56.5 -23t-32.5 -48q-8 36 -8 60q0 25 5 56q3 17 19.5 31t33.5 14q25 0 30 -31q14 22 14 49q0 29 -16 49.5t-43 20.5q-72 0 -72 -86q0 -21 5 -44q14 -71 14 -150q0 -15 -1 -26q-2 -24 -20 -39t-43 -15v-90
q29 0 52.5 29.5t30.5 68.5q13 -98 160 -98v91q-50 0 -93 10q-61 15 -59 44q3 37 47 37q22 0 39.5 -11t14.5 -27z" />
    <glyph glyph-name="l" unicode="l" horiz-adv-x="185" 
d="M-1 0v90q43 0 50 66l12 -84q-9 -37 -20 -52q-14 -20 -42 -20zM77 450q73 13 92.5 -3.5t19.5 -44.5q0 -58 -85 -137q30 46 30 70v0q0 30 -57 25q-26 -2 -26 -84q0 -77 15 -153q6 -32 120 -32v-91q-120 0 -131 62q-22 120 -22 219q0 75 12.5 120.5t31.5 48.5z" />
    <glyph glyph-name="m" unicode="m" horiz-adv-x="419" 
d="M419 0q-66 0 -94 59q-22 46 -17 120q-54 0 -69 -14q24 -29 24 -55q0 -31 -17 -55q-19 -27 -49 -27t-47 31q-14 25 -14 58q0 15 23 49q-28 13 -76 13q2 -86 -7 -118q-17 -61 -77 -61v90q62 0 62 114q0 33 -6 65q49 0 77 -9q33 -10 66 -40q25 28 61 39q24 7 73 11
q-2 -16 -2 -34q0 -57 19 -96q24 -49 70 -49v-91zM199 150q-19 -11 -19 -20q0 -12 18 -12q19 0 19 14q0 8 -18 18z" />
    <glyph glyph-name="n" unicode="n" horiz-adv-x="297" 
d="M205 144q-6 -28 -6 -51q0 -93 99 -93v91q-78 0 -76 31q1 10 12 41.5t11 48.5q0 13 -6 23q-20 35 -61 35q-43 0 -79 -37q-39 -38 -39 -90q0 -24 -17.5 -38.5t-43.5 -14.5v-90q33 0 60 35q30 39 30 99q0 19 24 31.5t51 12.5q49 0 41 -34z" />
    <glyph glyph-name="o" unicode="o" 
d="M234 0h17v90h-22q-59 0 -108 11q-72 16 -72 50q0 25 70 25q74 0 74 -28q0 -31 -67 -46q-52 -12 -127 -12v-90q17 0 16 0h-1h30q108 0 154 70q29 44 28 100q-1 34 -29 63q-32 32 -77 32q-50 -1 -76.5 -28t-26.5 -71q0 -61 39 -104q55 -62 178 -62z" />
    <glyph glyph-name="p" unicode="p" horiz-adv-x="274" 
d="M27 -270q-22 -5 -50 -5q-32 0 -43 9q-18 16 -18 44q0 58 85 137q-30 -46 -30 -70q0 -27 35 -27q5 0 21 2q20 2 20 65q0 38 -9 132q-10 100 -11 140q0 45 25 74q27 33 75 34q45 0 77 -32q28 -29 29 -63q1 -56 -28 -100q-46 -70 -154 -70h-52v90q76 0 130 12q71 16 71 46
q0 28 -74 28q-71 0 -71 -53q0 -65 9 -168q8 -99 8 -128q0 -86 -45 -97zM172 46q15 33 46 97q8 -52 57 -52l-1 -91q-80 0 -102 46z" />
    <glyph glyph-name="q" unicode="q" 
d="M386 -130q146 1 169 44q9 17 9 33q0 36 -33 53q-5 -40 -89 -40q-139 0 -240 33q-153 48 -153 158q0 25 70 25q74 0 74 -28q0 -40 -67 -52q-34 -6 -127 -6v-90q17 0 16 0h-1h30q108 0 154 70q29 44 28 100q-1 34 -29 63q-32 32 -77 32q-50 -1 -76.5 -28t-26.5 -71
q0 -155 134 -235q102 -61 235 -61z" />
    <glyph glyph-name="r" unicode="r" horiz-adv-x="297" 
d="M199 93q0 -93 99 -93v91q-76 0 -76 31q0 14 11.5 43.5t11.5 46.5q0 23 -17 37t-40 14q-27 0 -71.5 -19t-52.5 -19q-19 0 -19 14q0 20 34 20q16 0 16 -25q0 -44 -25 -91q-30 -53 -71 -53v-90q35 0 58 32q12 18 29 64q31 91 32 93q15 52 15 97q0 63 -58 63q-24 0 -43 -37
q-15 -31 -15 -58q0 -101 57 -101q16 0 44 14t45 14q43 0 43 -30q0 -9 -3.5 -28.5t-3.5 -29.5z" />
    <glyph glyph-name="s" unicode="s" horiz-adv-x="257" 
d="M82 28q4 -53 40 -53v0q24 0 44.5 18.5t9.5 29.5q-24 24 -45 60q-20 33 -24 37q-4 3 -15 -26q-16 -41 -31 -60q-26 -34 -62 -34v90q48 0 69 38q14 23 18 70q5 38 10 38q11 0 17 -20q18 -53 20 -59q20 -47 54 -95q27 -37 27 -76v0q0 -62 -52 -90q-54 -29 -104 13
q-8 23 -8 43q0 26 14 48zM184 -55q11 26 11 56q0 24 -8 46q16 26 31 35t40 9v-91q-30 0 -45 -15q-7 -5 -29 -40z" />
    <glyph glyph-name="t" unicode="t" horiz-adv-x="259" 
d="M0 0v90q39 0 74.5 21.5t37.5 44.5l12 -84q-17 -72 -124 -72zM121 62q-17 93 -20 174q15 -1 22.5 -2.5t5.5 -2.5t-11 -1q5 -63 13 -107q7 -32 129 -32v-91q-128 0 -139 62zM190 193q-27 -6 -84 -6q-69 0 -81 10q-20 17 -20 46q0 53 57 90q-7 -25 -7 -30q0 -14 27 -20
q32 -8 58 -8t50 8q32 9 32 25q0 7 -9 25q14 -8 28 -32t14 -48q0 -48 -65 -60z" />
    <glyph glyph-name="u" unicode="u" horiz-adv-x="473" 
d="M-1 0v90q23 0 30 11q5 7 10 34q8 -23 31 -78q-14 -57 -71 -57zM-1 0v90q23 0 30 11q5 7 10 34q8 -23 31 -78q-14 -57 -71 -57zM-1 0v90q23 0 30 11q5 7 10 34q8 -23 31 -78q-14 -57 -71 -57zM385 60q16 26 47 84q5 -29 10 -38q9 -15 31 -15v-91q-77 0 -88 60zM404 270
q21 -12 38 -57q14 -40 14 -68q0 -61 -41 -102q-54 -52 -167 -52q-222 0 -222 167q0 32 17 66q15 31 36 46q-19 -21 -19 -65q0 -22 5 -38q11 -41 62 -63q48 -22 121 -22q140 0 172 86q3 8 3 21q0 42 -19 81z" />
    <glyph glyph-name="v" unicode="v" horiz-adv-x="357" 
d="M-1 0v90q19 0 46.5 90t33.5 90q3 0 3 -16q0 -66 -21 -149q-25 -105 -62 -105zM270 60q15 26 47 84q0 -53 41 -53v-91q-77 0 -88 60zM271 270q23 -11 37.5 -47.5t14.5 -77.5q0 -64 -44 -103q-48 -42 -137 -42q-92 0 -92 116q0 21 3 54q2 25 12 50q11 31 14 50q8 0 10 -43
q1 -30 3 -60q10 -76 50 -76q49 0 93 20q52 22 52 57q0 30 -66 26q-14 0 -14 -12q0 -6 14 -29q-58 31 -58 79q0 55 49 55q24 0 59 -17z" />
    <glyph glyph-name="w" unicode="w" horiz-adv-x="513" 
d="M-1 0v90q23 0 30 11q5 7 10 34q8 -23 31 -78q-14 -57 -71 -57zM-1 0v90q23 0 30 11q5 7 10 34q8 -23 31 -78q-14 -57 -71 -57zM-1 0v90q23 0 30 11q5 7 10 34q8 -23 31 -78q-14 -57 -71 -57zM437 108l5 30q7 -47 72 -47v-91q-38 0 -55 20q-22 25 -22 88zM449 270
q16 -8 27.5 -35.5t11.5 -57.5q0 -79 -67 -79q-10 0 -22 2q-6 -32 -34 -63q-44 -50 -117 -50q-222 0 -222 171q0 32 17 66q15 31 36 46q-19 -21 -19 -65q0 -22 5 -38q11 -41 61 -64.5t122 -23.5q48 0 78.5 29t30.5 70q0 7 -1 15q20 -13 40 -13v0q31 0 47.5 25.5t5.5 64.5z
" />
    <glyph glyph-name="x" unicode="x" horiz-adv-x="301" 
d="M302 0h-63q-65 0 -79 104q-3 27 -3 51v0q0 81 34 108q37 28 94 -20q-2 -26 -26 -91q-8 30 -31 30q-17 0 -31 -14.5t-14 -33.5t24 -32q21 -12 48 -12h47v-90zM-1 0v90h51q27 0 50.5 12.5t20.5 31.5q-3 20 -17 34t-29 14q-22 0 -30 -30q-8 21 -15 41q-9 27 -11 50
q36 30 62 30q61 0 63 -169q1 -40 -18 -69q-22 -35 -60 -35h-67z" />
    <glyph glyph-name="y" unicode="y" horiz-adv-x="349" 
d="M54 158q0 35 33 69q29 30 57 35q-52 -33 -52 -95q0 -40 38 -64q33 -21 76 -21q32 0 49 16q10 9 18 28q6 15 12 14q7 -2 9 -37q1 -23 0 -75q-1 -61 -1 -77q1 -88 -8 -124q-20 -81 -93 -95q-27 -5 -116 -5q-108 0 -120 9q-30 25 -30 52q0 46 82 122q-22 -33 -22 -56
q0 -26 27 -32q32 -7 88 -7q67 0 91 7q39 11 53 24q22 22 23 72q0 90 -8 90q-1 0 -18.5 -8.5t-34.5 -8.5q-153 0 -153 167zM280 62q5 10 5 19v0q0 1 -5 22q-3 13 4 28q11 -40 66 -40v-91q-33 0 -48 14t-22 48zM-1 0v90q36 0 51.5 10.5t23.5 48.5q6 -11 6 -21v0q0 3 -3 -22
q-2 -13 4 -27q0 -79 -82 -79z" />
    <glyph glyph-name="z" unicode="z" horiz-adv-x="366" 
d="M298 62q5 10 5 19v0q0 1 -6 22q-3 13 5 28q11 -40 65 -40v-91q-33 0 -48 14t-21 48zM196 181q-102 0 -102 -63q0 -9 4 -31.5t4 -30.5q0 -37 -33 -49q-20 -7 -70 -7v90q67 0 71 56q4 53 46 91q39 34 80 34q64 0 87 -27q32 -36 32 -145q0 -80 -22 -99q10 -11 13 -18
q5 -11 5 -31q2 -88 -7 -124q-21 -81 -93 -95q-27 -5 -117 -5q-108 0 -119 9q-30 25 -30 52q0 46 81 122q-22 -33 -22 -56q0 -26 29.5 -32.5t85.5 -6.5q67 0 92 7q39 11 52 24q22 22 23 72q-1 79 -62 79h-6h-6q-9 0 -10 3q-8 14 -8 49t12 41q7 3 19 3h10.5h11.5q35 0 35 35
q0 53 -86 53z" />
    <glyph glyph-name="braceleft" unicode="{" horiz-adv-x="453" 
d="M365 60q16 26 47 84q5 -29 10 -38q9 -15 32 -15v-91q-77 0 -89 60zM378 270q21 -12 37 -57q15 -40 15 -68q0 -62 -42 -103q-54 -54 -167 -54q-221 0 -221 170q0 32 16 66q16 31 37 46q-19 -21 -19 -65q0 -22 4 -38q12 -41 61.5 -64t121.5 -23q67 0 114 25q44 23 59 63
q3 8 3 21q0 42 -19 81zM103 248q22 35 64 66q27 -43 63 -68q-36 -25 -63 -63q-37 21 -64 65zM211 247q22 35 64 66q27 -43 63 -68q-36 -25 -63 -63q-37 21 -64 65z" />
    <glyph glyph-name="bar" unicode="|" horiz-adv-x="0" 
d="M-76 422q-22 36 -64 67q-27 -43 -63 -69q36 -24 63 -63q37 22 64 65z" />
    <glyph glyph-name="braceright" unicode="}" horiz-adv-x="0" 
d="M-172 384q-22 36 -65 67q-26 -43 -63 -68q37 -25 63 -63q38 21 65 64zM11 384q-22 36 -65 67q-27 -43 -63 -68q36 -25 63 -63q38 21 65 64zM-78 452q-23 35 -65 66q-27 -43 -63 -68q36 -24 63 -63q37 22 65 65z" />
    <glyph glyph-name="asciitilde" unicode="~" horiz-adv-x="67" 
d="M29 149q-8 -12 -15 -42.5t-7 -51.5q0 -11 2 -17q9 -26 18 -32t41 -6v90q-43 0 -39 59z" />
    <glyph glyph-name="nonbreakingspace" unicode="&#xa0;" horiz-adv-x="90" 
d="M91 90h-92v-90h92v90z" />
    <glyph glyph-name="exclamdown" unicode="&#xa1;" horiz-adv-x="185" 
d="M91 360q-12 0 -12 -8t12 -24q-43 21 -43 73q0 40 15 46q9 4 34 5q28 1 44 -5q23 -7 23 -25q0 -21 -42 -123q-8 -18 -8 -85q0 -86 8 -95q17 -18 17 -70q0 -49 -33 -49q-37 0 -37 34q0 18 11 48q7 19 14 39q9 37 3 178q0 12 3 29t3 20q0 12 -12 12zM158 -95q-28 43 -65 64
q-27 -38 -63 -63q36 -25 63 -68q42 31 65 67z" />
    <glyph glyph-name="cent" unicode="&#xa2;" horiz-adv-x="207" 
d="M117 -250q-18 0 -32.5 11t-14.5 28q0 30 21 76q8 -20 32 -20h15q27 0 27 14q0 15 -14 18t-27 5q-14 8 -14 35q0 12 9 43t8 60q12 4 19 4q11 0 11 -10q0 -7 -5.5 -20t-5.5 -19q0 -5 4 -7q28 -11 37.5 -26.5t9.5 -45.5q0 -64 -10 -94q-18 -52 -70 -52zM208 0h-86
q-64 0 -78 104q-3 27 -3 51v0q0 81 34 108q37 28 94 -20q-2 -26 -26 -91q-8 30 -32 30q-16 0 -30 -14.5t-14 -33.5t24 -32q21 -12 48 -12h69v-90zM-1 0v90q47 0 56 53q9 -17 45 -97q-11 -46 -101 -46z" />
    <glyph glyph-name="sterling" unicode="&#xa3;" horiz-adv-x="338" 
d="M63 0h-64v90h62q121 0 151 59q8 18 23 58q10 29 14 29q13 0 13 -114v-171q1 -42 1 -51q0 -149 -99 -168q-27 -5 -117 -5q-107 0 -119 9q-30 25 -30 52q0 46 81 122q-21 -33 -21 -56q0 -26 27 -32q32 -7 87 -7q67 0 92 7q39 11 52 24q22 22 23 72l-1 156q-13 -50 -61 -65
q-30 -9 -114 -9z" />
    <glyph glyph-name="currency" unicode="&#xa4;" horiz-adv-x="230" 
d="M-1 90v-90q50 0 66 7q26 10 32 46q12 -41 45 -50q12 -3 88 -3v91q-95 0 -99 53q-1 33 -3 67q-1 25 -8 25q-5 0 -15 -29q-14 -40 -23 -58q-12 -22 -34 -40q-25 -19 -49 -19z" />
    <glyph glyph-name="yen" unicode="&#xa5;" horiz-adv-x="302" 
d="M54 158q0 35 33 69q29 30 58 35q-52 -33 -52 -95q0 -40 38 -64q32 -21 75 -21q32 0 50 16q10 9 18 28q6 15 11 14q7 -2 9 -37q1 -23 0 -75q-1 -61 -1 -77q2 -88 -7 -124q-21 -81 -93 -95q-27 -5 -117 -5q-108 0 -119 9q-30 25 -30 52q0 46 81 122q-22 -33 -22 -56
q0 -26 29.5 -32.5t85.5 -6.5q67 0 92 7q39 11 52 24q22 22 23 72q0 90 -8 90q-1 0 -18 -8.5t-35 -8.5q-153 0 -153 167zM-1 0v90q36 0 51.5 10.5t24.5 48.5q5 -11 5 -21v0q0 3 -3 -22q-2 -13 5 -27q0 -79 -83 -79z" />
    <glyph glyph-name="section" unicode="&#xa7;" horiz-adv-x="0" 
d="M-232 323q13 -116 52 -116q18 0 41 26q-19 -84 -51 -84q-11 0 -26.5 10t-19.5 10q-3 0 -22 -10.5t-31 -10.5q-36 0 -40 84q18 -26 36 -26q22 0 39 38q16 33 22 79z" />
    <glyph glyph-name="dieresis" unicode="&#xa8;" horiz-adv-x="479" 
d="M404 270q21 -12 38 -57q14 -40 14 -68q0 -62 -41 -102q-54 -53 -167 -53q-222 0 -222 168q0 32 17 66q15 31 36 46q-19 -21 -19 -65q0 -22 5 -38q11 -41 61 -63t122 -22q140 0 172 86q3 8 3 21q0 42 -19 81zM-1 0v90q23 0 30 11q5 7 10 34q8 -23 31 -78q-14 -57 -71 -57z
" />
    <glyph glyph-name="copyright" unicode="&#xa9;" horiz-adv-x="329" 
d="M266 -49q1 -88 -8 -124q-20 -81 -93 -95q-27 -5 -117 -5q-107 0 -119 9q-30 25 -30 52q0 46 81 122q-21 -33 -21 -56q0 -26 27 -32q32 -7 87 -7q67 0 92 7q39 11 52 24q22 22 23 72q0 6 2 37q1 24 1 39q0 83 -27 118q-18 24 -58 24q-21 0 -36.5 -7t-15.5 -16
q0 -23 67 -23q44 0 52 3q19 9 20 47q1 40 -16.5 82t-43.5 67l34 93q44 -37 53 -94q6 -37 6 -90q0 -120 -25 -162q-21 -36 -78 -36q-103 0 -103 98q0 127 71 127q65 0 92.5 -59t30.5 -215zM-1 0v90q43 0 65 10q32 14 31 49q5 -11 5 -21q0 -5 -2 -14t-2 -14q0 -10 6 -21
q0 -35 -29.5 -57t-73.5 -22z" />
    <glyph glyph-name="ordfeminine" unicode="&#xaa;" horiz-adv-x="428" 
d="M75 204q-20 -2 -44 -26q-27 -26 -27 -52q0 -9 3 -17q23 -50 85 -75q84 -34 255 -34h81v90h-81q-95 0 -165 11q-123 19 -123 67q0 16 16 36z" />
    <glyph glyph-name="guillemotleft" unicode="&#xab;" horiz-adv-x="0" 
d="M-172 217q-22 35 -65 67q-26 -44 -63 -69q37 -24 63 -63q38 22 65 65z" />
    <glyph glyph-name="logicalnot" unicode="&#xac;" horiz-adv-x="185" 
d="M77 360q17 2 21 2v0q69 0 6 -97q85 79 85 137q0 28 -19.5 44.5t-92.5 3.5q-40 -7 -40 -143q0 -58 8 -133q4 -33 -9 -58.5t-37 -25.5v-90q53 0 66 48q9 -48 66 -48q22 2 35 21t13 44q0 48 -37 69q5 -14 5 -24q0 -20 -22 -20q-25 0 -42.5 19.5t-21.5 51.5q-12 92 -12 122
q0 74 28 77z" />
    <glyph glyph-name="registered" unicode="&#xae;" horiz-adv-x="297" 
d="M178 -42q0 53 33.5 124t33.5 130q0 23 -17 37t-40 14q-27 0 -71.5 -19t-52.5 -19q-19 0 -19 14q0 20 34 20q16 0 16 -25q0 -44 -25 -91q-30 -53 -71 -53v-90q35 0 58 32q12 18 29 64q31 91 32 93q15 52 15 97q0 63 -58 63q-24 0 -43 -37q-15 -31 -15 -58q0 -101 57 -101
q16 0 44 14t45 14q43 0 43 -30q0 -17 -28.5 -94t-28.5 -126q0 -50 22 -82q25 -35 68 -35q57 0 57 47q0 49 -58 80q14 -23 14 -29q0 -8 -13 -8q-20 0 -39 15q-22 17 -22 39z" />
    <glyph glyph-name="macron" unicode="&#xaf;" 
d="M180 12q-22 35 -65 66q-26 -43 -63 -68q36 -24 63 -63q38 22 65 65zM112 88q41 0 62 -36q18 -29 18 -73q0 -123 -105 -233q143 137 143 280q0 58 -27 102q-31 52 -85 52q-36 0 -65 -26q-34 -30 -34 -77q0 -36 21 -77q-1 8 -1 15q0 31 21 52t52 21z" />
    <glyph glyph-name="degree" unicode="&#xb0;" horiz-adv-x="448" 
d="M380 270q21 -12 37 -57q15 -40 15 -68q0 -61 -42 -102q-53 -52 -166 -52q-222 0 -222 167q0 32 16 66q16 31 37 46q-19 -21 -19 -65q0 -22 5 -38q11 -41 62 -63q48 -22 120 -22q141 0 173 86q3 8 3 21q0 42 -19 81z" />
    <glyph glyph-name="plusminus" unicode="&#xb1;" horiz-adv-x="0" 
d="M-133 -138q-78 0 -76 -47q0 -15 3 -26q-32 32 -32 88q0 75 99 75q116 0 116 -74q0 -54 -45 -89q9 21 8 39q-1 34 -73 34z" />
    <glyph glyph-name="acute" unicode="&#xb4;" horiz-adv-x="233" 
d="M34 104q0 92 4 114q10 50 48 52q52 3 75.5 -5t23.5 -33q0 -11 -4 -25q-21 -73 -73 -137q-57 -70 -109 -70v90q44 3 87.5 26t43.5 50v0q0 17 -33 13q-32 -3 -32 -24q0 -35 15.5 -49.5t58.5 -15.5q82 0 95 -38q2 -6 2 -17q0 -21 -7 -51.5t-15 -42.5q2 29 -11 41
q-19 18 -81 18q-38 0 -64 35q-24 31 -24 69z" />
    <glyph glyph-name="mu" unicode="&#xb5;" horiz-adv-x="510" 
d="M-1 0v91q75 0 75 125q0 27 -4 54q50 -4 74 -11q37 -12 63 -39q35 31 59 40.5t71 9.5q-2 -7 -2 -16q0 -51 37 -105q39 -59 83 -59q14 0 14 8q0 6 -14 29q58 -31 58 -79t-58 -48q-63 0 -101 60q-34 53 -33 119q-47 0 -75 -13q22 -34 22 -49q0 -33 -13 -58q-17 -31 -47 -31
t-49 27q-17 24 -17 55q0 26 24 55q-16 14 -69 14q1 -20 1 -37q0 -142 -99 -142zM206 150q-18 -10 -18 -18q0 -14 19 -14q18 0 18 12q0 9 -19 20z" />
    <glyph glyph-name="paragraph" unicode="&#xb6;" horiz-adv-x="127" 
d="M77 419q12 -1 12 -9t-12 -24q42 21 42 74q0 39 -15 46q-9 4 -33 4q-28 1 -45 -4q-21 -7 -21 -31q0 -23 22 -66q7 -13 36 -131q1 13 -2 48.5t-3 50.5q0 42 19 42z" />
    <glyph glyph-name="ordmasculine" unicode="&#xba;" horiz-adv-x="428" 
d="M353 204q19 -2 45 -27t26 -51q0 -9 -4 -17q-22 -50 -85 -75q-83 -34 -255 -34h-81v90h81q96 0 165 11q123 19 123 67q0 16 -15 36z" />
    <glyph glyph-name="guillemotright" unicode="&#xbb;" horiz-adv-x="0" 
d="M-136 -89q-22 35 -65 66q-26 -43 -63 -68q37 -24 63 -63q38 22 65 65z" />
    <glyph glyph-name="questiondown" unicode="&#xbf;" horiz-adv-x="90" 
d="M91 90h-92v-90h92v90z" />
    <glyph glyph-name="Acircumflex" unicode="&#xc2;" horiz-adv-x="419" 
d="M419 0q-66 0 -94 59q-22 46 -17 120q-54 0 -69 -14q24 -29 24 -55q0 -31 -17 -55q-19 -27 -49 -27t-47 31q-14 25 -14 58q0 15 23 49q-28 13 -76 13q2 -86 -7 -118q-17 -61 -77 -61v90q62 0 62 114q0 33 -6 65q49 0 77 -9q33 -10 66 -40q25 28 61 39q24 7 73 11
q-2 -16 -2 -34q0 -57 19 -96q24 -49 70 -49v-91zM199 150q-19 -11 -19 -20q0 -12 18 -12q19 0 19 14q0 8 -18 18zM192 358q-23 36 -65 67q-27 -43 -63 -69q36 -24 63 -63q37 22 65 65zM327 360q-23 36 -65 67q-27 -43 -63 -69q36 -24 63 -63q37 22 65 65zM257 464
q-22 35 -64 66q-27 -43 -63 -68q36 -25 63 -63q37 21 64 65z" />
    <glyph glyph-name="Aring" unicode="&#xc5;" horiz-adv-x="127" 
d="M49 419q-13 -1 -13 -9t13 -24q-43 21 -43 74q0 39 15 46q9 4 33 4q28 1 45 -4q21 -7 21 -31q0 -23 -22 -66q-7 -13 -36 -131q-1 13 2 48.5t3 50.5q0 42 -18 42z" />
    <glyph glyph-name="AE" unicode="&#xc6;" horiz-adv-x="227" 
d="M84 0q-38 0 -60 35q-19 29 -19 69q0 73 136 112q-31 -14 -55 -39q-28 -29 -28 -58t42 -29q91 0 91 49q0 39 -39 76t-84 37q-36 0 -47 -28q6 43 24 75q25 43 60 43q51 0 86 -55q30 -47 30 -97q0 -56 -15 -104q-17 -53 -41.5 -69.5t-80.5 -16.5z" />
    <glyph glyph-name="Iacute" unicode="&#xcd;" horiz-adv-x="238" 
d="M184 -82q0 34 -34 98q-42 78 -47 97q-11 34 -11 67v0q0 73 42 101q44 30 98 -15q-2 -26 -26 -91q-8 29 -34 29v0q-18 0 -32 -14.5t-9 -32.5q4 -17 43 -99q34 -70 35 -107q1 -88 -8 -124q-20 -81 -93 -95q-27 -5 -117 -5q-107 0 -119 9q-30 25 -30 52q0 46 81 122
q-21 -33 -21 -56q0 -26 27 -32q32 -7 88 -7q67 0 91 7q39 11 52 24q22 22 24 72zM-1 0v90q55 0 81 23q20 17 25 48l4 44q8 -16 8.5 -46.5t7.5 -45.5q-14 -60 -23 -73q-28 -40 -103 -40zM177 16q-50 46 -50 95q0 11 4 20q7 -40 108 -40v-91q-57 0 -62 16z" />
    <glyph glyph-name="Idieresis" unicode="&#xcf;" horiz-adv-x="155" 
d="M-1 0v90q43 0 50 66l8 -92q-9 -37 -18 -48q-12 -16 -40 -16zM77 -49q0 -71 -8 -128q-12 -88 -38 -93q-73 -13 -92.5 3.5t-19.5 44.5q0 58 86 137q-31 -46 -31 -70q0 -27 36 -27q4 0 21 2q22 2 22 126q0 62 -6 158t-6 97q0 104 3 142q8 102 33 107q35 13 128 13
q101 0 120 -17q8 -8 8 -24v0q0 -27 -18 -50t-41 -14q-19 7 -77 7q-62 0 -120 -5q-22 -2 -22 -96q0 -62 11 -181.5t11 -131.5zM58 46l-9 110q17 -47 41 -58q14 -7 66 -7v-91q-55 0 -71 6q-22 8 -27 40z" />
    <glyph glyph-name="Ograve" unicode="&#xd2;" horiz-adv-x="153" 
d="M-1 0v90q43 0 50 66l12 -84q-9 -37 -20 -52q-14 -20 -42 -20zM77 450q35 13 128 13q101 0 120 -17q8 -8 8 -24v0q0 -27 -18 -50t-41 -14q-19 7 -77 7q-62 0 -120 -5q-26 -2 -26 -84q0 -77 15 -153q4 -20 24 -26q17 -6 64 -6v-91q-49 0 -71 14t-28 48q-21 117 -21 213
q0 75 12 123q12 45 31 52z" />
    <glyph glyph-name="Oslash" unicode="&#xd8;" 
d="M150 96q-101 14 -101 55q0 25 70 25q74 0 74 -28q0 -31 -67 -46q-52 -12 -127 -12v-90q17 0 16 0h-1h30q108 0 154 70q29 44 28 100q-1 34 -29 63q-32 32 -77 32q-50 -1 -76.5 -28t-26.5 -71q0 -75 57 -121q67 4 76 51z" />
    <glyph glyph-name="Uacute" unicode="&#xda;" horiz-adv-x="165" 
d="M145 77q-22 36 -65 67q-26 -43 -63 -68q36 -25 63 -63q38 21 65 64zM158 242q-22 36 -64 67q-27 -43 -63 -69q36 -24 63 -63q37 22 64 65z" />
    <glyph glyph-name="germandbls" unicode="&#xdf;" horiz-adv-x="238" 
d="M184 -82q0 34 -34 98q-42 78 -47 97q-11 34 -11 67v0q0 73 42 101q44 30 98 -15q-2 -26 -26 -91q-8 29 -34 29v0q-18 0 -32 -14.5t-9 -32.5q4 -17 43 -99q34 -70 35 -107q1 -88 -8 -124q-20 -81 -93 -95q-27 -5 -117 -5q-107 0 -119 9q-30 25 -30 52q0 46 81 122
q-21 -33 -21 -56q0 -26 27 -32q32 -7 88 -7q67 0 91 7q39 11 52 24q22 22 24 72zM-1 0v90q55 0 81 23q20 17 25 48l4 44q8 -16 8.5 -46.5t7.5 -45.5q-14 -60 -23 -73q-28 -40 -103 -40z" />
    <glyph glyph-name="aring" unicode="&#xe5;" horiz-adv-x="282" 
d="M100 46q-11 -46 -101 -46v90q47 0 56 53q9 -17 45 -97zM104 0q-39 0 -60 35q-19 29 -19 69q0 73 136 112q-31 -14 -55 -39q-28 -29 -28 -58t42 -29q91 0 91 49q0 39 -39 76t-85 37q-35 0 -46 -28q5 43 24 75q24 43 60 43q51 0 86 -55q30 -47 30 -97q0 -56 -15 -104
q-17 -53 -41.5 -69.5t-80.5 -16.5z" />
    <glyph glyph-name="ae" unicode="&#xe6;" horiz-adv-x="282" 
d="M100 46q-11 -46 -101 -46v90q47 0 56 53q9 -17 45 -97zM104 0q-39 0 -60 35q-19 29 -19 69q0 73 136 112q-31 -14 -55 -39q-28 -29 -28 -58t42 -29q91 0 91 49q0 39 -39 76t-85 37q-35 0 -46 -28q5 43 24 75q24 43 60 43q51 0 86 -55q30 -47 30 -97q0 -56 -15 -104
q-17 -53 -41.5 -69.5t-80.5 -16.5zM15 424q23 35 65 67q27 -44 63 -69q-36 -24 -63 -63q-37 22 -65 65zM125 423q22 36 65 67q26 -43 63 -69q-36 -24 -63 -63q-38 22 -65 65z" />
    <glyph glyph-name="ccedilla" unicode="&#xe7;" horiz-adv-x="234" 
d="M214 -59q2 29 -11 41q-19 18 -82 18t-77 104q-3 27 -3 51v0q0 81 34 108q37 28 94 -20q-2 -26 -26 -91q-8 30 -32 30q-16 0 -30 -14.5t-14 -33.5t24 -32q21 -12 48 -12q82 0 95 -38q2 -6 2 -17q0 -21 -7 -51.5t-15 -42.5zM-1 0v90q47 0 56 53q9 -17 45 -97
q-11 -46 -101 -46z" />
    <glyph glyph-name="divide" unicode="&#xf7;" horiz-adv-x="305" 
d="M150 0q39 0 39 27q0 20 -21 54l-24 38q-5 10 -5 49q0 31 23 45q33 17 66 35q30 17 52.5 67t22.5 95q0 49 -30 59q-21 7 -104 7q-118 0 -132 -12q-30 -25 -30 -51q0 -47 81 -122q-21 33 -21 56q0 26 26.5 32t68.5 6q43 0 92 -6q21 -3 21 -8q0 -6 -37 -24q-50 -24 -71 -38
q-38 -26 -41 -52q-3 -36 -8 -138q0 -2 -1 -25q-1 -17 -1 -29q0 -65 34 -65zM206 -95q-27 43 -65 64q-26 -38 -63 -63q37 -25 63 -68q43 31 65 67z" />
    <glyph glyph-name="oslash" unicode="&#xf8;" 
d="M150 96q-101 14 -101 55q0 25 70 25q74 0 74 -28q0 -31 -67 -46q-52 -12 -127 -12v-90q17 0 16 0h-1h30q108 0 154 70q29 44 28 100q-1 34 -29 63q-32 32 -77 32q-50 -1 -76.5 -28t-26.5 -71q0 -75 57 -121q67 4 76 51zM218 365q-27 -44 -63 -69q21 -12 37 -35
q19 -27 19 -56q0 -14 -5 -28q47 64 47 110q0 39 -35 78z" />
    <glyph glyph-name="OE" unicode="&#x152;" horiz-adv-x="127" 
d="M77 419q12 -1 12 -9t-12 -24q42 21 42 74q0 39 -15 46q-9 4 -33 4q-28 1 -45 -4q-21 -7 -21 -31q0 -23 22 -66q7 -13 36 -131q1 13 -2 48.5t-3 50.5q0 42 19 42z" />
    <glyph glyph-name="oe" unicode="&#x153;" horiz-adv-x="327" 
d="M84 50q-3 -5 -5 -10h-34q-28 46 -28 126q0 44 26.5 71t76.5 28q45 0 77 -32q28 -29 29 -63q1 -56 -28 -100q-46 -70 -154 -70h-30t0 0q2 0 -15 0v90q75 0 127 12q67 15 67 46q0 28 -74 28q-70 0 -70 -25q0 -63 35 -101zM232 -97q70 0 70 17q0 14 -44 14q-57 0 -85 -53
l-42 -98q-29 -53 -87 -53q-27 0 -47 21.5t-19 59.5q1 21 17 42q21 28 60 35q-41 -17 -41 -48q0 -13 8 -23t20 -10q66 0 101 57q25 52 50 105q32 56 91 56q45 0 45 -58q0 -51 -30 -101q-31 -53 -67 -53q-63 0 -123 103l-64 124l39 10q13 -37 64 -90q55 -57 84 -57z" />
    <glyph glyph-name="florin" unicode="&#x192;" horiz-adv-x="185" 
d="M-1 0v90q43 0 50 66l8 -92q-9 -37 -18 -48q-12 -16 -40 -16zM58 46l-9 110q35 -66 63 -66q4 0 13.5 1.5t14.5 1.5q45 0 50 -40q3 -23 -6 -52q-12 -37 -38 -52q10 18 10 32v0q0 35 -48 19q-3 -1 -6 -1q-14 0 -27.5 14.5t-16.5 32.5zM41 201q0 104 3 142q8 102 33 107
q73 13 92.5 -3.5t19.5 -44.5q0 -58 -85 -137q30 46 30 70v0q0 30 -57 25q-22 -2 -22 -96q0 -62 11 -181.5t11 -131.5q0 -71 -8 -128q-12 -88 -38 -93q-73 -13 -92.5 3.5t-19.5 44.5q0 58 86 137q-31 -46 -31 -70q0 -27 36 -27q4 0 21 2q22 2 22 126q0 62 -6 158t-6 97z" />
    <glyph glyph-name="circumflex" unicode="&#x2c6;" horiz-adv-x="192" 
d="M54 110.5q-30 -20.5 -55 -20.5v-90q119 0 132 144q4 35 -5 65q-8 26 -16 26q-6 0 -7 -25q-1 -34 -10 -56.5t-39 -43zM167 338q-23 35 -65 66q-27 -43 -63 -68q36 -25 63 -63q37 21 65 65z" />
    <glyph glyph-name="caron" unicode="&#x2c7;" horiz-adv-x="428" 
d="M0 0v90q39 0 71 22q29 21 32 44l12 -84q-17 -72 -115 -72zM120 123q6 -33 85 -33q38 0 62 22q21 19 24 44l12 -84q-9 -37 -25 -52q-23 -20 -73 -20q-48 0 -69 13.5t-27 48.5q-7 40 -8 92q0 40 -1 80q16 -1 23.5 -2.5t5.5 -2.5t-11 0q0 -49 2 -106zM85 283q22 -5 42 -5
q48 0 71 29q18 -29 100 -29q32 0 48 5q32 9 32 25q0 7 -9 25q13 -8 27.5 -32t14.5 -48q0 -31 -19 -45q-28 -20 -105 -20q-69 0 -93 20q-22 -23 -92 -23q-60 0 -74 12q-20 17 -20 46q0 53 57 90q-8 -25 -8 -30q0 -14 28 -20zM297 62q-17 93 -20 174q15 -1 23 -2.5t6 -2.5
t-11 -1q4 -63 13 -107q6 -32 120 -32v-91q-120 0 -131 62z" />
    <glyph glyph-name="breve" unicode="&#x2d8;" horiz-adv-x="234" 
d="M73 9q19 -9 38 -9v0q41 0 66.5 36.5t13.5 80.5q32 -32 32 -88q0 -48 -26 -81q-29 -38 -81 -38q-53 0 -81 37q-25 32 -25 81t23 84q-4 -12 -4 -24q0 -27 18 -53q14 -20 26 -26zM176 77q-23 36 -65 67q-27 -43 -63 -68q36 -25 63 -63q37 21 65 64z" />
    <glyph glyph-name="dotaccent" unicode="&#x2d9;" horiz-adv-x="257" 
d="M123 14q-13 -22 -13 -48q0 -29 15.5 -49.5t42.5 -20.5q42 0 68 92q23 80 23 170q0 71 -22 96q-15 16 -50 16q-43 0 -81 -36q-41 -39 -46 -91.5t-61 -52.5v-90q64 0 86 117q5 27 29 43.5t52 16.5q53 0 62 -48q3 -22 3 -40v0q0 -52 -25 -80q-22 -23 -50 -21q-27 2 -33 26z
M44 308q-3 16 -3 36q0 44 16 73q21 37 64 37q27 0 42.5 -20.5t15.5 -49.5q0 -27 -13 -49q-5 28 -26 28q-16 0 -34 -14.5t-22 -28t-4 -29.5q0 -50 29 -106q-51 52 -65 123z" />
    <glyph glyph-name="ring" unicode="&#x2da;" horiz-adv-x="241" 
d="M82 98q-7 -39 -30.5 -68.5t-52.5 -29.5v90q25 0 43 15t20 39q1 11 1 26q0 79 -14 150q-5 23 -5 44q0 86 72 86q27 0 43 -20.5t16 -49.5q0 -27 -14 -49q-5 31 -30 31q-17 0 -33.5 -14t-19.5 -31q-5 -31 -5 -56q0 -24 8 -60q5 25 32.5 48t56.5 23q35 0 55 -37q3 -5 3 -13
q0 -19 -11.5 -44t-25.5 -34q3 16 -14.5 27t-39.5 11q-44 0 -47 -37q-4 -50 68 -54q36 -2 50 -7q19 -8 27 -31q2 -5 2 -16q0 -22 -7 -52.5t-15 -41.5q2 29 -8 40q-15 18 -66 18q-36 0 -49 35q-3 8 -10 62z" />
    <glyph glyph-name="tilde" unicode="&#x2dc;" horiz-adv-x="276" 
d="M173 177q-31 0 -55 -15q-27 -16 -33 -45q-12 -52 -25 -76q-22 -41 -61 -41v90q54 0 61.5 52.5t47 90t90.5 37.5q57 0 57 -52q0 -20 -11.5 -59t-11.5 -50q0 -19 23 -19q22 0 22 20q0 10 -5 24q36 -21 36 -69q0 -25 -12.5 -44t-34.5 -21q-58 0 -58 56q0 13 6.5 45.5
t6.5 43.5q0 32 -43 32z" />
    <glyph glyph-name="summation" unicode="&#x3a3;" horiz-adv-x="486" 
d="M-1 0v90q23 0 30 11q5 7 10 34q8 -23 31 -78q-14 -57 -71 -57zM-1 0v90q23 0 30 11q5 7 10 34q8 -23 31 -78q-14 -57 -71 -57zM-1 0v90q23 0 30 11q5 7 10 34q8 -23 31 -78q-14 -57 -71 -57zM449 270q16 -8 27.5 -35.5t11.5 -57.5q0 -79 -67 -79q-10 0 -22 2
q-6 -32 -34 -63q-44 -50 -117 -50q-222 0 -222 171q0 32 17 66q15 31 36 46q-19 -21 -19 -65q0 -22 5 -38q11 -41 61 -64.5t122 -23.5q48 0 78.5 29t30.5 70q0 7 -1 15q20 -13 40 -13v0q31 0 47.5 25.5t5.5 64.5z" />
    <glyph glyph-name="Omega" unicode="&#x3a9;" horiz-adv-x="366" 
d="M196 181q-102 0 -102 -63q0 -9 4 -31.5t4 -30.5q0 -37 -33 -49q-20 -7 -70 -7v90q67 0 71 56q4 53 46 91q39 34 80 34q64 0 87 -27q32 -36 32 -145q0 -80 -22 -99q10 -11 13 -18q5 -11 5 -31q2 -88 -7 -124q-21 -81 -93 -95q-27 -5 -117 -5q-108 0 -119 9q-30 25 -30 52
q0 46 81 122q-22 -33 -22 -56q0 -26 29.5 -32.5t85.5 -6.5q67 0 92 7q39 11 52 24q22 22 23 72q-1 79 -62 79h-6h-6q-9 0 -10 3q-8 14 -8 49t12 41q7 3 19 3h10.5h11.5q35 0 35 35q0 53 -86 53z" />
    <glyph glyph-name="pi" unicode="&#x3c0;" horiz-adv-x="236" 
d="M27 -270q-22 -5 -50 -5q-32 0 -43 9q-18 16 -18 44q0 58 85 137q-30 -46 -30 -70q0 -27 35 -27q5 0 21 2q20 2 20 65q0 38 -9 132q-10 100 -11 140q0 45 25 74q27 33 75 34q45 0 77 -32q28 -29 29 -63q1 -56 -28 -100q-46 -70 -154 -70h-52v90q76 0 130 12q71 16 71 46
q0 28 -74 28q-71 0 -71 -53q0 -65 9 -168q8 -99 8 -128q0 -86 -45 -97z" />
    <glyph glyph-name="endash" unicode="&#x2013;" horiz-adv-x="388" 
d="M389 90h-390v-90h390v90zM47 234q0 28 34 66q-5 -24 -1 -40q2 -6 29 -6q16 0 69.5 7.5t77.5 7.5q44 0 68 -19t24 -48t-34 -66q6 24 1 40q-2 7 -28 7q-15 0 -65.5 -7t-73.5 -7q-48 0 -74.5 18.5t-26.5 46.5z" />
    <glyph glyph-name="emdash" unicode="&#x2014;" horiz-adv-x="388" 
d="M185 -140q36 0 36 48q0 23 -43 70q-60 67 -78 94q-42 63 -42 127q0 58 59 58q24 0 42 -37q16 -32 16 -59q0 -40 -22 -95q-25 -67 -58 -67q-16 0 -37 1h-38h-21v90h11h40q19 -1 55 -1q24 0 35 26q7 15 7 32q0 20 -34 20q-17 0 -17 -26q0 -22 43 -58q58 -49 79 -77
q42 -57 42 -131q0 -103 -74 -103q-45 0 -60 28q-12 21 -12 75q0 74 43 131q20 28 78 77q42 36 42 58q0 26 -16 26q-34 0 -34 -20q0 -16 7 -32q10 -26 31 -26h63q31 1 61 1v-90h-21h-45q-28 -1 -45 -1q-32 0 -58 67q-21 55 -21 95q0 27 15 59q18 37 43 37q58 0 58 -58
q0 -64 -42 -127q-17 -27 -77 -94q-42 -47 -42 -70q0 -48 31 -48z" />
    <glyph glyph-name="quoteleft" unicode="&#x2018;" horiz-adv-x="0" 
d="M-243 256q-22 35 -65 66q-26 -43 -63 -68q36 -25 63 -63q38 21 65 65zM-105 257q-23 36 -65 67q-27 -43 -63 -68q36 -25 63 -63q37 21 65 64zM-176 361q-23 35 -65 67q-27 -44 -63 -69q36 -24 63 -63q37 22 65 65z" />
    <glyph glyph-name="quoteright" unicode="&#x2019;" horiz-adv-x="0" 
d="M-152 -99q22 -36 65 -67q26 43 63 69q-37 24 -63 63q-38 -22 -65 -65zM-290 -101q22 -35 65 -66q27 43 63 68q-36 24 -63 63q-38 -22 -65 -65zM-219 -204q23 -36 65 -67q27 43 63 68q-36 25 -63 63q-37 -21 -65 -64z" />
    <glyph glyph-name="quotesinglbase" unicode="&#x201a;" horiz-adv-x="428" 
d="M353 -114q19 2 45 27t26 51q0 9 -4 17q-22 50 -85 75q-83 34 -255 34h-81v-90h81q96 0 165 -11q123 -19 123 -67q0 -16 -15 -36z" />
    <glyph glyph-name="quotedblleft" unicode="&#x201c;" horiz-adv-x="455" 
d="M404 270q21 -12 38 -57q14 -40 14 -68q0 -62 -41 -102q-54 -53 -167 -53q-222 0 -222 168q0 32 17 66q15 31 36 46q-19 -21 -19 -65q0 -22 5 -38q11 -41 61 -63t122 -22q140 0 172 86q3 8 3 21q0 42 -19 81zM-1 0v90q23 0 30 11q5 7 10 34q8 -23 31 -78q-14 -57 -71 -57z
M127 248q22 35 65 66q26 -43 63 -68q-37 -25 -63 -63q-38 21 -65 65zM235 247q22 35 65 66q26 -43 63 -68q-37 -25 -63 -63q-38 21 -65 65z" />
    <glyph glyph-name="quotedblright" unicode="&#x201d;" horiz-adv-x="206" 
d="M3 195q0 -23 12 -48.5t26 -34.5q-3 6 -3 12q0 36 62 36q40 0 48 -15q1 -35 -3 -45.5t-16 -10.5h-11q-9 1 -14 1q-62 0 -77 -42q-2 -6 -2 -17q0 -22 7 -52t15 -42q0 3 -1.5 12.5t-1.5 13.5q0 37 76 37q25 0 41 45q15 40 15 93q0 83 -33 98q-24 10 -59 10q-81 0 -81 -51z
" />
    <glyph glyph-name="dagger" unicode="&#x2020;" horiz-adv-x="257" 
d="M134 120q2 18 -7.5 52t-7.5 60h17q-1 -19 12 -67q13 -51 13 -83q0 -18 -3 -35q-5 -31 -58 -41q-31 -6 -101 -6v91q132 0 135 29zM197 204q-27 -5 -87 -5q-74 0 -86 10q-19 16 -19 45q0 53 56 91q-7 -25 -7 -31q0 -14 27 -20q32 -7 62 -7t54 7q32 10 32 25q0 8 -8 26
q13 -8 26 -31q15 -26 15 -49q0 -48 -65 -61z" />
    <glyph glyph-name="daggerdbl" unicode="&#x2021;" horiz-adv-x="127" 
d="M49 419q-13 -1 -13 -9t13 -24q-43 21 -43 74q0 39 15 46q9 4 33 4q28 1 45 -4q21 -7 21 -31q0 -23 -22 -66q-7 -13 -36 -131q-1 13 2 48.5t3 50.5q0 42 -18 42z" />
    <glyph glyph-name="bullet" unicode="&#x2022;" 
d="M119 88q36 0 51 6q24 10 24 40q0 42 -75 42q-34 0 -49 -6q-24 -9 -24 -37q0 -29 23 -39q15 -6 50 -6zM120 0q-104 0 -104 134q0 131 104 131q55 0 83 -41q25 -35 25 -92t-25 -92q-29 -40 -83 -40zM218 365q-27 -44 -63 -69q21 -12 37 -35q19 -27 19 -56q0 -14 -5 -28
q47 64 47 110q0 39 -35 78z" />
    <glyph glyph-name="ellipsis" unicode="&#x2026;" 
d="M150 96q-101 14 -101 55q0 25 70 25q74 0 74 -28q0 -31 -67 -46q-52 -12 -127 -12v-90q17 0 16 0h-1h30q108 0 154 70q29 44 28 100q-1 34 -29 63q-32 32 -77 32q-50 -1 -76.5 -28t-26.5 -71q0 -75 57 -121q67 4 76 51zM15 357q23 36 65 67q27 -43 63 -68
q-36 -25 -63 -63q-37 21 -65 64zM125 356q22 36 65 67q26 -43 63 -68q-36 -25 -63 -63q-38 21 -65 64z" />
    <glyph glyph-name="guilsinglleft" unicode="&#x2039;" horiz-adv-x="240" 
d="M16 0h-17v90h15q30 0 57 19q24 17 36 40q9 18 23 58q11 29 15 29q13 0 13 -114v-171q1 -42 1 -51q0 -149 -100 -168q-26 -5 -116 -5q-108 0 -119 9q-31 25 -31 52q0 46 82 122q-22 -33 -22 -56q0 -26 27 -32q32 -7 88 -7q67 0 91 7q39 11 53 24q22 22 23 72l-2 156
q-12 -50 -46 -65q-21 -9 -71 -9zM135 76q7 15 8 48.5t9 49.5q0 -28 31.5 -57t57.5 -29v-91q-35 0 -67.5 23t-38.5 56z" />
    <glyph glyph-name="guilsinglright" unicode="&#x203a;" horiz-adv-x="234" 
d="M235 0h-113q-81 0 -81 155q0 44 11 74q17 44 53 44q29 0 64 -30q-2 -26 -26 -91q-8 30 -32 30q-17 0 -30.5 -15t-13.5 -33q0 -46 111 -46q15 0 35 1t22 1v-90zM117 -250q-18 0 -32.5 11t-14.5 28q0 30 21 76q8 -20 32 -20h15q27 0 27 14q0 15 -14 18t-27 5q-14 8 -14 35
q0 12 9 43t8 60q12 4 19 4q11 0 11 -10q0 -7 -5.5 -20t-5.5 -19q0 -5 4 -7q28 -11 37.5 -26.5t9.5 -45.5q0 -64 -10 -94q-18 -52 -70 -52z" />
    <glyph glyph-name="trademark" unicode="&#x2122;" horiz-adv-x="229" 
d="M75 111q-33 -21 -75 -21v-90q80 0 114 32q31 31 39 112q3 35 -6 65q-8 26 -16 26q-6 0 -6 -25q-2 -34 -11.5 -58t-38.5 -41z" />
    <glyph glyph-name="partialdiff" unicode="&#x2202;" horiz-adv-x="282" 
d="M122 0q-39 0 -61 35q-21 31 -17 69q10 84 97 103q-53 -33 -53 -76q0 -6 1 -12q5 -29 50 -29q53 0 53 38q0 19 -17.5 46.5t-58.5 78.5q-29 36 -41 66q-11 25 -11 54q0 77 69 77q27 0 43 -20.5t16 -49.5q0 -27 -14 -49q-5 31 -20 31q-10 0 -18.5 -13.5t-6.5 -28.5
q7 -45 70 -140q34 -53 34 -88q0 -9 -2 -17q-13 -43 -35.5 -59t-77.5 -16zM-1 0v90q37 0 61 53q9 -21 32 -75q-4 -33 -31.5 -50.5t-61.5 -17.5z" />
    <glyph glyph-name="Delta" unicode="&#x2206;" horiz-adv-x="313" 
d="M63 0h-64v90h62q121 0 151 59q8 18 23 58q10 29 14 29q13 0 13 -114v-171q1 -42 1 -51q0 -149 -99 -168q-27 -5 -117 -5q-107 0 -119 9q-30 25 -30 52q0 46 81 122q-21 -33 -21 -56q0 -26 27 -32q32 -7 87 -7q67 0 92 7q39 11 52 24q22 22 23 72l-1 156q-13 -50 -61 -65
q-30 -9 -114 -9zM283 338q-28 -44 -65 -65q-27 38 -63 63q36 25 63 68q42 -31 65 -66z" />
    <glyph glyph-name="product" unicode="&#x220f;" horiz-adv-x="297" 
d="M-1 0v90q88 0 112 47q2 5 5 5v0q12 0 11 -104q0 -108 -15 -196q-17 -107 -46 -112q-73 -13 -92.5 3.5t-19.5 44.5q0 58 86 137q-30 -46 -30 -70q0 -27 35 -27q4 0 21 2q26 3 32 101q1 14 1 125q-21 -46 -100 -46zM202 104q0 -104 96 -104v91q-76 0 -76 31q0 15 10 46.5
t10 47.5q0 57 -83 57q-50 0 -86 -24q-41 -27 -41 -74q0 -35 24 -78v5q-1 37 23 58t62 21q19 0 39 -7q25 -10 25 -26q0 -7 -1.5 -21.5t-1.5 -22.5z" />
    <glyph glyph-name="fraction" unicode="&#x2215;" horiz-adv-x="240" 
d="M213 291q5 9 5 18q0 12 -13 9q-29 0 -61 -148q-26 -136 -52 -273q-30 -147 -54 -147q-53 0 -53 47q0 40 45 81q-6 -9 -6 -16q0 -11 14 -11q24 0 51 148q25 136 49 273q32 147 67 147q53 0 53 -47q0 -40 -45 -81z" />
    <glyph glyph-name="periodcentered" unicode="&#x2219;" horiz-adv-x="428" 
d="M75 -114q-20 2 -44 26q-27 26 -27 52q0 9 3 17q23 50 85 75q84 34 255 34h81v-90h-81q-95 0 -165 -11q-123 -19 -123 -67q0 -16 16 -36z" />
    <glyph glyph-name="radical" unicode="&#x221a;" horiz-adv-x="323" 
d="M-1 0v90q19 0 46.5 90t33.5 90q3 0 3 -16q0 -66 -21 -149q-25 -105 -62 -105zM271 270q23 -11 37.5 -47.5t14.5 -77.5q0 -64 -44 -103q-48 -42 -137 -42q-92 0 -92 116q0 21 3 54q2 25 12 50q11 31 14 50q8 0 10 -43q1 -30 3 -60q10 -76 50 -76q49 0 93 20q52 22 52 57
q0 30 -66 26q-14 0 -14 -12q0 -6 14 -29q-58 31 -58 79q0 55 49 55q24 0 59 -17z" />
    <glyph glyph-name="infinity" unicode="&#x221e;" horiz-adv-x="329" 
d="M345 -49q11 -20 11 -56q0 -55 -25 -99q-31 -53 -87 -64q-27 -5 -117 -5q-107 0 -119 9q-30 25 -30 52q0 46 81 122q-21 -33 -21 -56q0 -26 27 -32q32 -7 87 -7q68 0 92 7q40 12 55 20q31 17 31 43q0 15 -10 33q-21 36 -49 113l-28 82q-13 36 -13 71v0q0 70 44 97
q45 29 99 -15q-2 -26 -26 -91q-9 29 -34 29q-19 0 -32.5 -14.5t-9.5 -32.5q7 -35 14 -69q17 -60 60 -137zM82 28q4 -53 40 -53v0q24 0 44.5 18.5t9.5 29.5q-24 24 -45 60q-20 33 -24 37q-4 3 -15 -26q-16 -41 -31 -60q-26 -34 -62 -34v90q48 0 69 38q14 23 19 70q4 38 9 38
q11 0 17 -20q18 -53 20 -59q20 -47 54 -95q27 -37 27 -76v0q0 -62 -52 -90q-54 -29 -104 13q-8 23 -8 43q0 26 14 48zM147 90q48 0 69 37q13 22 18 68q4 36 10 36l11 -111q-4 3 -19 -34q-19 -48 -42 -68q-10 10 -47 72z" />
    <glyph glyph-name="integral" unicode="&#x222b;" horiz-adv-x="293" 
d="M249 104q0 -40 -19 -69q-21 -35 -59 -35q-57 0 -81.5 16.5t-41.5 69.5q-12 39 -12 115q0 79 10 141q17 100 56 108q72 14 91.5 -3t19.5 -45q0 -58 -85 -137q30 46 30 70q0 21 -23 25h-33q-45 0 -45 -150q0 -29 2 -54q3 -32 38 -51q28 -15 58 -15q26 0 48.5 12.5
t22.5 31.5q0 16 -20 26t-48 10q-58 0 -82 -35q4 60 25 98q41 20 71 20q78 0 77 -149zM-1 0v90q47 0 56 53q9 -17 45 -97q-11 -46 -101 -46z" />
    <glyph glyph-name="approxequal" unicode="&#x2248;" horiz-adv-x="352" 
d="M-1 0v90h51q27 0 50.5 12.5t20.5 31.5q-3 20 -17 34t-29 14q-22 0 -30 -30q-8 21 -15 41q-9 27 -11 50q36 30 62 30q61 0 63 -169q1 -40 -18 -69q-22 -35 -60 -35h-67zM160 104q-3 27 -3 51v0q0 81 34 108q37 28 94 -20q-2 -26 -26 -91q-8 30 -31 30q-17 0 -31 -14.5
t-14 -33.5t24 -32q21 -12 48 -12q82 0 95 -38q2 -6 2 -17q0 -21 -7 -51.5t-15 -42.5q2 29 -10 41q-20 18 -81 18q-65 0 -79 104z" />
    <glyph glyph-name="notequal" unicode="&#x2260;" horiz-adv-x="0" 
d="M-230 280q77 0 75 47q0 15 -3 26q32 -32 32 -87q0 -76 -99 -76q-116 0 -116 74q0 54 45 89q-9 -21 -8 -39q2 -34 74 -34z" />
    <glyph glyph-name="lessequal" unicode="&#x2264;" 
d="M251 90v-90h-61q4 22 -10 50q-12 25 -24 31q-19 9 -38 9v0q-42 0 -67 -36.5t-13 -80.5q-32 32 -32 88q0 48 26 81q29 38 81 38q48 0 72 -24.5t22 -65.5h44zM50 13q22 -36 64 -67q27 43 63 68q-36 25 -63 63q-37 -21 -64 -64z" />
    <glyph glyph-name="greaterequal" unicode="&#x2265;" 
d="M-1 90v-90h61q-4 22 10 50q13 25 25 31q18 9 37 9v0q42 0 67.5 -36.5t12.5 -80.5q32 32 32 88q0 48 -25 81q-30 38 -81 38q-49 0 -73 -24.5t-22 -65.5h-44zM201 13q-23 -36 -65 -67q-27 43 -63 68q36 25 63 63q37 -21 65 -64z" />
    <glyph glyph-name="fi" unicode="&#xf001;" horiz-adv-x="0" 
d="M-230 222q46 0 69 18q18 13 17 29q0 16 -3 26q32 -31 32 -87q0 -24 -17 -43q-27 -33 -93 -33q-67 0 -99 27q-24 19 -24 47q0 55 45 90q-9 -21 -8 -39q1 -35 81 -35zM-162 331q-22 36 -65 67q-26 -43 -63 -69q36 -24 63 -63q38 22 65 65z" />
    <glyph glyph-name="fl" unicode="&#xf002;" horiz-adv-x="0" 
d="M-120 429q26 -53 27 -54q18 -28 40 -28q12 0 27 8q-25 -55 -51 -55q-10 0 -24 9t-19 9q-4 0 -19.5 -9.5t-25.5 -9.5q-26 0 -46 52q14 -4 25 -4q28 0 43 28q12 27 23 54z" />
    </font>
</defs>
</svg>
